<?xml version="1.0" encoding="UTF-8"?>
<!DOCTYPE svg PUBLIC "-//W3C//DTD SVG 1.1//EN" "http://www.w3.org/Graphics/SVG/1.1/DTD/svg11.dtd">
<!-- Creator: CorelDRAW X7 -->
<svg xmlns="http://www.w3.org/2000/svg" xml:space="preserve" width="2.032mm" height="2.0234mm" version="1.1" style="shape-rendering:geometricPrecision; text-rendering:geometricPrecision; image-rendering:optimizeQuality; fill-rule:evenodd; clip-rule:evenodd"
viewBox="0 0 203 202"
 xmlns:xlink="http://www.w3.org/1999/xlink">
 <defs>
  <style type="text/css">
   <![CDATA[
    .fil2 {fill:none}
    .fil0 {fill:#0866FF;fill-rule:nonzero}
    .fil1 {fill:white;fill-rule:nonzero}
   ]]>
  </style>
   <clipPath id="id0">
    <path d="M0 0l203 0 0 202 -203 0 0 -202z"/>
   </clipPath>
 </defs>
 <g id="Layer_x0020_1">
  <metadata id="CorelCorpID_0Corel-Layer"/>
  <g>
  </g>
  <g style="clip-path:url(#id0)">
   <g>
    <path id="path29" class="fil0" d="M201 102c0,-54 -44,-98 -99,-98 -54,0 -98,44 -98,98 0,47 32,85 75,96l0 -65 -21 0 0 -31 21 0 0 -12c0,-34 15,-50 48,-50 6,0 17,2 21,3l0 27c-2,0 -6,0 -11,0 -16,0 -23,6 -23,22l0 10 33 0 -6 31 -27 0 0 67c49,-6 87,-47 87,-98z"/>
    <path id="path33" class="fil1" d="M141 133l6 -31 -33 0 0 -10c0,-16 7,-22 23,-22 5,0 9,0 11,0l0 -27c-4,-1 -15,-3 -21,-3 -33,0 -48,16 -48,50l0 12 -21 0 0 31 21 0 0 65c7,2 15,3 23,3 5,0 8,0 12,-1l0 -67 27 0z"/>
   </g>
  </g>
  <polygon class="fil2" points="0,0 203,0 203,202 0,202 "/>
 </g>
</svg>
