<?xml version="1.0" encoding="UTF-8"?>
<!DOCTYPE svg PUBLIC "-//W3C//DTD SVG 1.1//EN" "http://www.w3.org/Graphics/SVG/1.1/DTD/svg11.dtd">
<!-- Creator: CorelDRAW X7 -->
<svg xmlns="http://www.w3.org/2000/svg" xml:space="preserve" width="24px" height="24px" version="1.1" style="shape-rendering:geometricPrecision; text-rendering:geometricPrecision; image-rendering:optimizeQuality; fill-rule:evenodd; clip-rule:evenodd"
viewBox="0 0 24 24"
 xmlns:xlink="http://www.w3.org/1999/xlink">
 <defs>
  <style type="text/css">
   <![CDATA[
    .fil0 {fill:#3168B1}
   ]]>
  </style>
 </defs>
 <g id="Layer_x0020_1">
  <metadata id="CorelCorpID_0Corel-Layer"/>
  <path class="fil0" d="M12 0c7,0 12,5 12,12 0,6 -4,10 -9,12l0 -7 1 0 2 -4 -3 0 0 -2c0,-1 0,-2 0,-2 1,0 1,-1 2,-1 0,0 1,0 1,0l0 -4c-1,0 -2,0 -2,0 -2,0 -3,0 -4,1 -1,0 -2,1 -2,2 -1,1 -1,2 -1,4l0 2 -3 0 0 4 3 0 0 7c-5,-2 -9,-6 -9,-12 0,-7 5,-12 12,-12z"/>
 </g>
</svg>
