<?xml version="1.0" encoding="UTF-8"?>
<!DOCTYPE svg PUBLIC "-//W3C//DTD SVG 1.1//EN" "http://www.w3.org/Graphics/SVG/1.1/DTD/svg11.dtd">
<!-- Creator: CorelDRAW X7 -->
<svg xmlns="http://www.w3.org/2000/svg" xml:space="preserve" width="1.967mm" height="1.9766mm" version="1.1" style="shape-rendering:geometricPrecision; text-rendering:geometricPrecision; image-rendering:optimizeQuality; fill-rule:evenodd; clip-rule:evenodd"
viewBox="0 0 197 198"
 xmlns:xlink="http://www.w3.org/1999/xlink"
 data-name="Layer 1">
 <defs>
  <style type="text/css">
   <![CDATA[
    .fil0 {fill:#25D366}
   ]]>
  </style>
 </defs>
 <g id="Layer_x0020_1">
  <metadata id="CorelCorpID_0Corel-Layer"/>
  <g id="_2584560782864">
   <path class="fil0" d="M168 29c-18,-19 -43,-29 -69,-29 0,0 0,0 0,0 -54,0 -98,44 -98,98 0,0 0,0 0,0 0,17 4,34 13,49l-14 51 52 -14c14,8 30,12 47,12l0 0c0,0 0,0 0,0 54,0 98,-44 98,-98 0,-26 -11,-51 -29,-69l0 0 0 0zm-69 150c-15,0 -29,-3 -42,-11l-3 -2 -30 8 8 -30 -2 -3c-8,-13 -13,-28 -13,-43 0,-45 37,-82 82,-82 21,0 42,9 57,24 16,16 24,36 24,58 0,45 -36,81 -81,81l0 0zm44 -61c-2,-1 -14,-7 -16,-7 -3,-1 -4,-2 -6,1 -1,2 -6,8 -8,9 -1,2 -2,2 -5,1 -2,-1 -10,-4 -20,-12 -5,-5 -10,-11 -13,-17 -2,-3 0,-4 1,-5 1,-1 2,-3 4,-4 1,-2 1,-3 2,-5 0,0 0,-1 0,-1 0,-1 0,-2 0,-3 -1,-1 -6,-13 -8,-18 -2,-5 -4,-4 -5,-4 -2,0 -3,0 -5,0 -2,0 -5,1 -6,3 -3,2 -9,8 -9,20 0,12 9,24 10,26 1,1 17,26 42,37 6,2 10,4 14,5 3,1 6,1 9,1 2,0 4,0 6,0 5,-1 15,-6 17,-12 2,-6 2,-11 1,-12 -1,-1 -2,-1 -5,-3l0 0 0 0z"/>
  </g>
 </g>
</svg>
