<svg xmlns="http://www.w3.org/2000/svg"
     viewBox="0 0 23 23"
     width="23"
     height="23"
     fill="currentColor">

  <path d="M17 14c0,0 -2,-1 -2,-1 0,0 -1,0 -1,0 0,0 -1,1 -1,1 0,0 0,0 0,0 -1,0 -2,0 -3,-1 0,-1 -1,-1 -1,-2 0,-1 0,-1 0,-1 0,0 0,0 0,0 0,0 1,-1 1,-1 0,0 0,0 0,0 0,0 0,0 0,0 -1,0 -1,-2 -1,-2 -1,-1 -1,-1 -1,-1 0,0 0,0 -1,0 0,0 0,0 0,0 -1,1 -1,1 -1,3 0,1 1,3 1,3 0,0 2,3 5,4 0,0 1,1 1,1 1,0 1,0 2,0 0,0 0,0 0,0 1,0 2,-1 2,-1 0,-1 0,-2 0,-2l0 0zm-5 -14c3,0 6,1 8,3 2,2 3,5 3,8 0,4 -1,7 -3,9 -2,2 -5,3 -8,3 -2,0 -3,0 -4,0 0,-1 -1,-1 -2,-2l-6 2 2 -6c-1,-1 -1,-1 -2,-2 0,-1 0,-2 0,-4 0,-3 1,-6 3,-8 2,-2 5,-3 9,-3z"/>
</svg>
