<?xml version="1.0" encoding="UTF-8"?>
<!DOCTYPE svg PUBLIC "-//W3C//DTD SVG 1.1//EN" "http://www.w3.org/Graphics/SVG/1.1/DTD/svg11.dtd">
<!-- Creator: CorelDRAW X7 -->
<svg xmlns="http://www.w3.org/2000/svg" xml:space="preserve" width="23px" height="23px" version="1.1" style="shape-rendering:geometricPrecision; text-rendering:geometricPrecision; image-rendering:optimizeQuality; fill-rule:evenodd; clip-rule:evenodd"
viewBox="0 0 23 23"
 xmlns:xlink="http://www.w3.org/1999/xlink">
 <defs>
  <style type="text/css">
   <![CDATA[
    .fil0 {fill:#25D366}
   ]]>
  </style>
 </defs>
 <g id="Layer_x0020_1">
  <metadata id="CorelCorpID_0Corel-Layer"/>
  <path class="fil0" d="M17 14c0,0 -2,-1 -2,-1 0,0 -1,0 -1,0 0,0 -1,1 -1,1 0,0 0,0 0,0 -1,0 -2,0 -3,-1 0,-1 -1,-1 -1,-2 0,-1 0,-1 0,-1 0,0 0,0 0,0 0,0 1,-1 1,-1 0,0 0,0 0,0 0,0 0,0 0,0 -1,0 -1,-2 -1,-2 -1,-1 -1,-1 -1,-1 0,0 0,0 -1,0 0,0 0,0 0,0 -1,1 -1,1 -1,3 0,1 1,3 1,3 0,0 2,3 5,4 0,0 1,1 1,1 1,0 1,0 2,0 0,0 0,0 0,0 1,0 2,-1 2,-1 0,-1 0,-2 0,-2 0,0 0,0 0,0l0 0 0 0zm-5 -14c3,0 6,1 8,3 2,2 3,5 3,8 0,4 -1,7 -3,9 -2,2 -5,3 -8,3 -2,0 -3,0 -4,0 0,-1 -1,-1 -2,-2l-6 2 2 -6c-1,-1 -1,-1 -2,-2 0,-1 0,-2 0,-4 0,-3 1,-6 3,-8 2,-2 5,-3 9,-3zm6 5c-1,-2 -4,-3 -6,-3 -3,0 -6,1 -7,3 -2,1 -3,4 -3,6 0,1 0,2 0,3 0,1 1,2 1,3l0 0 0 4 3 -1 0 0c1,0 2,1 3,1 1,0 2,0 3,0 2,0 5,-1 6,-3 2,-1 3,-4 3,-7 0,-2 -1,-5 -3,-6z"/>
 </g>
</svg>
