<?xml version="1.0" encoding="UTF-8"?>
<!DOCTYPE svg PUBLIC "-//W3C//DTD SVG 1.1//EN" "http://www.w3.org/Graphics/SVG/1.1/DTD/svg11.dtd">
<!-- Creator: CorelDRAW X7 -->
<svg xmlns="http://www.w3.org/2000/svg" xml:space="preserve" width="1.8628mm" height="1.8628mm" version="1.1" style="shape-rendering:geometricPrecision; text-rendering:geometricPrecision; image-rendering:optimizeQuality; fill-rule:evenodd; clip-rule:evenodd"
viewBox="0 0 186 186"
 xmlns:xlink="http://www.w3.org/1999/xlink">
 <defs>
  <style type="text/css">
   <![CDATA[
    .fil0 {fill:black}
   ]]>
  </style>
 </defs>
 <g id="Layer_x0020_1">
  <metadata id="CorelCorpID_0Corel-Layer"/>
  <path class="fil0" d="M31 0c-17,0 -31,14 -31,31l0 124c0,17 14,31 31,31l124 0c17,0 31,-14 31,-31l0 -124c0,-17 -14,-31 -31,-31l-124 0zm9 40l36 0 25 35 30 -35 11 0 -36 43 44 63 -35 0 -29 -41 -35 41 -11 0 41 -48 -41 -58zm17 9l63 88 13 0 -62 -88 -14 0z"/>
 </g>
</svg>
