<?xml version="1.0" encoding="UTF-8"?>
<!DOCTYPE svg PUBLIC "-//W3C//DTD SVG 1.1//EN" "http://www.w3.org/Graphics/SVG/1.1/DTD/svg11.dtd">
<!-- Creator: CorelDRAW X7 -->
<svg xmlns="http://www.w3.org/2000/svg" xml:space="preserve" width="24px" height="24px" version="1.1" style="shape-rendering:geometricPrecision; text-rendering:geometricPrecision; image-rendering:optimizeQuality; fill-rule:evenodd; clip-rule:evenodd"
viewBox="0 0 24 24"
 xmlns:xlink="http://www.w3.org/1999/xlink">
 <defs>
  <style type="text/css">
   <![CDATA[
    .fil0 {fill:#332C2B;fill-rule:nonzero}
   ]]>
  </style>
 </defs>
 <g id="Layer_x0020_1">
  <metadata id="CorelCorpID_0Corel-Layer"/>
  <path class="fil0" d="M12 0c3,0 6,1 8,4 3,2 4,5 4,8 0,3 -1,6 -4,8 -2,3 -5,4 -8,4 -3,0 -6,-1 -8,-4 -3,-2 -4,-5 -4,-8 0,-3 1,-6 4,-8 2,-3 5,-4 8,-4zm-6 6l4 0 3 4 3 -4 2 0 -5 5 6 7 -5 0 -3 -5 -4 5 -2 0 5 -5 -4 -7zm2 1l7 10 2 0 -8 -10 -1 0zm11 -2c-2,-2 -4,-3 -7,-3 -3,0 -5,1 -7,3 -2,2 -3,4 -3,7 0,3 1,5 3,7 2,2 4,3 7,3 3,0 5,-1 7,-3 2,-2 3,-4 3,-7 0,-3 -1,-5 -3,-7z"/>
 </g>
</svg>
