<?xml version="1.0" encoding="UTF-8"?>
<!DOCTYPE svg PUBLIC "-//W3C//DTD SVG 1.1//EN" "http://www.w3.org/Graphics/SVG/1.1/DTD/svg11.dtd">
<!-- Creator: CorelDRAW X7 -->
<svg xmlns="http://www.w3.org/2000/svg" xml:space="preserve" width="685px" height="150px" version="1.1" style="shape-rendering:geometricPrecision; text-rendering:geometricPrecision; image-rendering:optimizeQuality; fill-rule:evenodd; clip-rule:evenodd"
viewBox="0 0 685 150"
 xmlns:xlink="http://www.w3.org/1999/xlink">
 <defs>
  <style type="text/css">
   <![CDATA[
    .fil5 {fill:none}
    .fil0 {fill:#FEFEFE}
    .fil3 {fill:#332C2B}
    .fil4 {fill:#E62129}
    .fil1 {fill:#1D1819}
    .fil9 {fill:#181910}
    .fil2 {fill:#FEFEFE;fill-rule:nonzero}
    .fil6 {fill:#332C2B;fill-rule:nonzero}
    .fil7 {fill:#332C2B;fill-rule:nonzero}
    .fil8 {fill:#E62129;fill-rule:nonzero}
   ]]>
  </style>
   <clipPath id="id0">
    <path d="M340 20c13,2 18,6 11,9 -7,4 -25,5 -38,3 -14,-1 -19,-6 -12,-9 8,-4 25,-5 39,-3z"/>
   </clipPath>
 </defs>
 <g id="Layer_x0020_1">
  <metadata id="CorelCorpID_0Corel-Layer"/>
  <path class="fil0" d="M340 20c13,2 18,6 11,9 -7,4 -25,5 -38,3 -14,-1 -19,-6 -12,-9 8,-4 25,-5 39,-3z"/>
  <g style="clip-path:url(#id0)">
   <g id="_2744405981696">
    <g>
     <polygon id="1" class="fil0" points="328,25 320,24 311,26 311,28 307,31 311,33 319,33 329,30 334,29 336,26 "/>
     <path class="fil1" d="M318 24c-4,1 -7,1 -10,2 -1,0 -2,0 -3,0 1,0 2,1 3,1 1,0 1,1 2,1 0,0 0,0 0,0 0,0 0,0 0,0 -2,0 -3,0 -5,0 -2,0 -3,0 -5,0l7 3 4 -3c0,0 0,0 0,0 0,0 0,0 1,-1 2,-1 4,-2 7,-2 0,0 0,0 0,0l0 0c0,0 0,0 0,-1 0,0 0,0 0,0 -1,0 -1,0 -1,0zm0 1l1 0c-2,0 -3,1 -4,1 -1,1 -2,1 -3,1 0,1 -1,1 -1,1l0 0 0 0 -4 4 0 0c0,0 1,0 1,0 0,0 1,0 1,0 0,0 0,0 0,0 0,0 0,0 0,0 1,-1 1,-1 1,-1 1,-1 2,-2 3,-3 1,-1 3,-2 5,-3zm-12 7c-1,0 -2,0 -3,0l-5 -1 -1 -5 2 -1c3,0 5,0 8,0 0,0 1,0 1,0l0 1c-2,0 -3,0 -4,0 0,0 0,0 0,0 0,0 0,0 0,0 1,1 2,1 3,1 1,0 2,1 2,1 -1,0 -3,0 -4,0 -2,0 -4,0 -6,0 0,0 0,0 0,0 0,0 0,0 0,0l7 4z"/>
     <path class="fil1" d="M298 25c0,0 1,0 1,0 3,0 7,0 10,0 0,0 1,0 1,0l-1 0c0,0 0,0 -1,0 0,0 0,0 -1,0 0,0 0,0 0,0 0,0 0,0 -1,0 0,0 0,0 0,0 -1,0 -3,0 -5,0 -1,0 -1,0 -2,0 -1,0 -1,0 -1,0 0,0 0,0 0,0zm10 0c0,0 0,0 0,0 1,0 1,0 1,0 0,0 0,0 0,0 0,0 0,0 0,0 0,0 0,0 0,0 0,0 -1,0 -1,0 0,0 0,0 0,0 0,0 0,0 -1,0 0,0 0,0 0,0 0,0 0,0 0,0 0,0 0,0 0,0 0,0 0,0 0,0 0,0 0,0 0,0 0,0 0,0 0,0 0,0 0,0 0,0 0,0 0,0 0,0 1,0 1,0 1,0 0,0 0,0 0,0z"/>
     <path class="fil1" d="M344 32c0,0 0,-1 0,-1 -2,0 -4,-1 -6,-2 0,0 0,0 0,0l1 0c0,0 0,0 0,0 0,0 0,0 0,1 0,0 1,0 1,0 0,0 0,0 0,0 0,0 0,0 0,0 1,0 3,0 4,1 0,0 1,0 1,0 0,0 0,0 0,1 -1,0 -1,0 -1,0zm-5 -3c0,0 0,0 0,0 0,0 0,0 0,0 0,0 0,0 0,0 0,0 0,0 0,0 0,0 0,0 0,0 0,0 0,0 0,0 0,0 0,0 0,0 0,0 0,0 1,0 0,0 0,1 0,1 0,0 0,0 0,0 0,0 0,0 0,0 0,0 0,0 0,0 0,0 0,0 0,0 0,0 0,0 0,0 0,0 0,0 0,0 0,-1 0,-1 0,-1 0,0 0,0 0,0 0,0 0,0 -1,0z"/>
     <g>
      <path class="fil1" d="M321 28c-3,0 -3,-2 -2,-3 0,0 0,0 0,0 1,0 1,0 1,0 2,0 4,1 6,1 2,0 5,1 8,1 0,0 0,0 0,0 0,0 0,0 0,0 -4,1 -9,2 -13,1z"/>
      <g>
       <g>
        <path class="fil1" d="M349 26c-4,2 -17,1 -23,0l0 0c-5,-1 -16,-3 -12,-5l0 0c2,-1 10,-1 21,1l0 0c12,1 16,3 14,4l0 0z"/>
        <path class="fil2" d="M322 22l1 0c3,-1 6,-2 10,-3l0 0 0 0c1,0 1,0 1,0 1,0 1,0 1,0l0 0c0,0 1,1 1,1 0,0 0,0 0,0 1,0 1,0 2,0 0,0 1,0 1,0 1,0 1,0 1,0 1,0 1,0 2,0 0,0 0,0 1,0l0 0c0,0 1,0 1,0 0,1 1,1 1,1l0 0 0 0c0,1 -2,2 -4,4l0 0 0 0c-2,0 -3,0 -5,0 -2,0 -4,0 -6,-1l-1 0c-2,0 -3,0 -5,-1 -1,0 -2,0 -2,-1l0 0 0 0z"/>
       </g>
       <path class="fil1" d="M324 22c3,-1 5,-2 9,-3 1,0 1,0 2,0 1,1 0,1 3,1 3,1 2,1 5,1 1,-1 1,0 1,0 1,1 -1,2 -3,3 -3,0 -6,0 -10,0 -3,-1 -6,-2 -7,-2zm10 -3c1,1 1,2 3,2 1,0 4,0 6,0 0,0 -1,0 -1,0 0,0 0,0 0,0 -2,0 -4,0 -6,0 -1,0 -2,-1 -2,-1 0,0 0,0 0,0 0,0 0,0 0,-1z"/>
      </g>
     </g>
     <path class="fil3" d="M320 28c0,0 -1,1 -2,1 0,0 0,-1 0,-1l0 0c0,0 1,0 1,0 0,0 1,0 1,0 0,0 0,0 0,0zm-2 1c-1,0 -3,0 -4,0 0,-1 0,-2 4,-3 -3,1 -3,2 -3,3 1,0 2,-1 3,-1 0,0 0,0 0,0l0 0c0,0 0,0 0,0 0,1 0,1 0,1zm3 0c1,0 1,0 1,0 0,0 0,0 0,0l1 0c0,0 0,0 -1,0 0,0 0,0 0,0 0,0 0,0 -1,0zm1 0c0,1 0,1 1,1 3,0 7,-1 8,-2 -1,1 -4,1 -8,2 0,0 0,-1 0,-1 0,0 0,0 0,0l0 0c0,0 0,0 0,0 0,0 -1,0 -1,0z"/>
     <path class="fil4" d="M317 29c1,0 1,0 1,-1 0,0 2,0 3,0 0,0 1,0 1,0 0,1 1,1 1,1 -1,0 -2,0 -3,1 0,0 -2,-1 -3,-1zm0 0c-4,1 -5,2 -7,3l1 1 4 0c2,-1 4,-2 5,-3 0,0 -1,0 -1,0 -1,-1 -1,-1 -2,-1z"/>
     <path class="fil1" d="M337 27c1,1 0,2 0,3 0,0 0,0 0,1 -1,0 -2,0 -4,-1 -1,0 -3,0 -4,0 0,0 0,0 0,0 0,0 0,1 0,1 0,0 1,0 2,1 0,0 1,1 2,1l-14 0 10 -3c0,0 0,0 0,0 0,0 0,0 1,0 2,-1 4,-2 3,-3 1,0 1,0 1,0l0 0c0,0 1,0 1,0 0,0 1,0 1,0 0,0 1,0 1,0zm-5 0l1 0c0,1 -1,1 -1,2 -1,0 -2,0 -3,1 0,0 0,0 -1,0l0 0 -1 1 -9 2 0 0c0,0 0,0 -1,0 0,0 0,0 0,0 0,0 0,0 0,0 0,0 0,0 0,0 0,0 1,-1 3,-1 2,-1 5,-1 7,-2 3,-1 5,-2 5,-3zm6 3c0,0 0,0 1,0 1,0 3,1 4,1l1 1 -20 3 -3 -1c-1,0 -1,0 -2,-1l14 0c0,0 0,0 0,0 0,0 0,0 0,0 0,0 -1,-1 -2,-1 -1,-1 -1,-1 -2,-1 2,0 3,0 4,0 2,0 3,0 4,0 0,0 1,0 1,0 0,0 0,0 0,0 0,-1 0,-1 0,-1l0 0z"/>
    </g>
   </g>
  </g>
  <path class="fil5" d="M340 20c13,2 18,6 11,9 -7,4 -25,5 -38,3 -14,-1 -19,-6 -12,-9 8,-4 25,-5 39,-3z"/>
  <path class="fil3" d="M387 53l0 0 0 -5 0 -19 7 0 0 3c1,-1 2,-2 3,-3 0,0 2,-1 3,-1 2,0 4,1 5,2 1,1 1,4 1,7l0 2 -7 0 0 -1c0,-1 0,-2 0,-3 0,0 -1,0 -2,0 -1,0 -1,0 -2,0 0,1 0,2 0,4l0 4 0 0 0 5 0 5 -8 0zm46 -8c0,3 -1,5 -2,6 -1,2 -4,2 -7,2l-3 0c-3,0 -5,-1 -7,-2 -1,-1 -2,-4 -2,-8l0 -5c0,-3 1,-6 2,-7 2,-2 4,-3 7,-3l3 0c4,0 6,1 7,3 2,1 3,4 3,7l0 4 -15 0 0 3c0,1 1,2 1,2 1,1 1,1 2,1l1 0c1,0 2,0 2,-1 1,0 1,-1 1,-2l7 0zm-14 -7l7 0 0 -1c0,-1 0,-2 0,-3 -1,-1 -1,-1 -3,-1l-1 0c-1,0 -1,0 -2,1 0,0 -1,1 -1,3l0 1zm33 -4c-1,0 -2,1 -2,1 -1,1 -1,2 -1,4l0 4c0,2 0,3 1,3 0,1 1,1 2,1l1 0c1,0 2,0 2,-1 0,0 0,-1 0,-3l0 -4c0,-2 0,-3 0,-4 0,0 -1,-1 -2,-1l-1 0zm-10 -15l7 0 0 13c1,-1 2,-2 3,-3 1,0 2,-1 3,-1 3,0 5,1 6,3 1,1 2,4 2,7l0 5c0,4 -1,6 -2,8 -1,1 -2,2 -3,2l0 1 0 -1c-1,0 -2,0 -3,0 -1,0 -3,0 -4,-1 -1,0 -1,-1 -2,-3l0 4 -7 0 0 -34zm36 20l0 4c0,2 0,3 0,4 1,0 1,0 3,0l0 0c2,0 2,0 3,0 0,-1 0,-2 0,-4l0 -4c0,-2 0,-4 0,-4 -1,-1 -1,-1 -3,-1l0 0c-2,0 -2,0 -3,1 0,0 0,2 0,4zm-8 -1c0,-3 1,-6 2,-7 2,-2 4,-3 7,-3l4 0c3,0 5,1 7,3 1,1 2,4 2,7l0 5c0,4 -1,7 -2,8 -2,1 -4,2 -7,2l-4 0c-3,0 -5,-1 -7,-2 -1,-1 -2,-4 -2,-8l0 -5zm30 15l0 -24 7 0 0 3c1,-1 2,-2 2,-3 1,0 2,-1 4,-1 2,0 4,1 5,2 1,1 1,4 1,7l0 2 -7 0 0 -1c0,-1 0,-2 0,-3 -1,0 -1,0 -2,0 -1,0 -2,0 -2,0 0,1 -1,2 -1,4l0 14 -7 0zm26 0l0 -24 7 0 0 3c1,-1 2,-2 3,-3 1,0 2,-1 4,-1 2,0 4,1 5,2 1,1 2,4 2,7l0 16 -7 0 0 -14c0,-2 -1,-3 -1,-4 0,0 -1,0 -3,0 -1,0 -2,0 -2,1 0,0 -1,1 -1,3l0 14 -7 0z"/>
  <path class="fil4" d="M329 89l36 -17c0,0 0,0 1,0 0,1 0,1 0,1l-1 18c0,0 0,1 -1,1l-21 11c0,0 -1,0 -1,0 0,0 0,0 0,0l0 -2c0,0 -1,0 -1,0l-12 0c0,0 -1,0 -1,0l0 10 0 11c0,1 0,1 1,1 0,0 0,0 0,0l47 -28c0,0 0,0 0,-1l4 -38c0,0 0,0 0,-1 -1,0 -1,0 -1,0l-36 15c-1,0 -1,0 -1,0 0,-1 0,-1 0,-1l0 -15c0,-1 0,-1 0,-1l25 -9c0,0 1,0 1,0 0,0 0,0 0,1l0 1c0,0 0,0 0,0 0,0 1,1 1,1l11 0c1,0 1,-1 1,-1l2 -17c0,0 0,0 -1,0 0,-1 0,-1 0,-1l-53 18c-1,0 -1,1 -1,1l0 41c0,1 0,1 1,1 0,0 0,0 0,0zm-3 -76l-49 12c-1,0 -1,1 -1,1 0,0 0,1 1,1l49 17c1,0 1,0 1,0l50 -17c0,0 0,-1 0,-1 0,0 0,-1 -1,-1l-49 -12c0,0 0,0 -1,0zm1 4c18,0 33,4 33,9 0,5 -15,9 -33,9 -19,0 -34,-4 -34,-9 0,-5 15,-9 34,-9zm-3 41l-38 -14c0,0 0,0 -1,0 0,0 0,0 0,1l1 14c0,0 0,1 1,1l38 15c0,0 0,0 0,0l0 13c0,1 0,1 0,1 -1,0 -1,0 -1,0l-36 -17c0,0 0,0 0,0 -1,1 -1,1 -1,1l2 18c0,0 0,1 0,1l21 11c0,0 1,0 1,0 0,0 0,0 0,-1l0 -1c0,0 1,0 1,0l12 0c1,0 1,0 1,0 0,7 0,14 0,21 0,1 0,1 0,1 -1,0 -1,0 -1,0l-46 -28c-1,0 -1,0 -1,-1l-6 -65c0,0 0,0 0,0 0,-1 0,-1 1,-1l53 18c0,0 0,1 0,1l0 10c0,0 0,1 0,1 -1,0 -1,0 -1,0zm-166 -30l20 0c10,0 18,9 18,19l0 30c0,10 -8,18 -18,18l-20 0c-10,0 -18,-8 -18,-18l0 -30c0,-10 8,-19 18,-19zm17 7l0 54 -14 0 0 -29c0,-5 0,-7 0,-8 0,-1 -1,-1 -2,-2 -1,0 -3,-1 -6,-1l-1 0 0 -6c6,-1 11,-4 15,-8l8 0zm90 60l-21 0 -28 -55 0 0 0 55 -12 0 0 -66 21 0 28 56 0 0 0 -56 12 0 0 66zm130 -40l0 3 17 0 0 6 -17 0 0 18c0,1 0,4 1,5 1,1 3,1 4,1 1,0 3,0 4,-1 1,-1 1,-4 1,-5l0 -2 8 0 0 1c0,4 -1,8 -3,11 -3,3 -8,3 -11,3 -3,0 -7,-1 -9,-3 -2,-3 -3,-7 -3,-11l0 -17 -4 0 0 -6 4 0 0 -3 8 0zm33 2l12 0c5,0 9,5 9,10l0 27 -6 0 0 -2c0,0 0,-1 -1,-1 0,0 0,0 0,0 -2,2 -4,3 -6,3l-10 0c-4,0 -7,-3 -7,-7l0 -8c0,-4 3,-7 7,-7l10 0c2,0 4,1 6,3 0,0 0,0 0,0 1,0 1,0 1,-1l0 -7c0,-1 -1,-3 -3,-3l-12 0c-1,0 -3,2 -3,3l0 1 -6 0 0 -1c0,-5 4,-10 9,-10zm-2 22l15 0c0,0 1,0 1,0l0 8c0,0 -1,0 -1,0l-15 0c0,0 0,0 0,0l0 -8c0,0 0,0 0,0zm32 -25l0 2 0 -2zm30 2c-22,0 21,0 0,0zm-23 4c1,0 2,-1 2,-1 3,-1 5,-2 8,-2 2,0 5,1 7,2 1,1 2,2 3,3 1,-1 2,-2 4,-3 2,-1 4,-2 7,-2 3,0 7,1 10,3 2,3 3,7 3,11l0 23 -8 0 0 -22c0,-1 0,-5 -1,-6 -1,-2 -3,-2 -5,-2 -2,0 -4,0 -6,2 -2,2 -2,5 -2,7l0 21 -7 0 0 -24c0,-1 0,-4 -1,-5 -1,-1 -4,-1 -5,-1 -2,0 -5,1 -6,2 -2,2 -2,5 -2,7l0 21 -8 0 0 -36 7 0 0 2zm59 1c0,-1 1,-2 2,-2 2,-1 5,-2 8,-2 3,0 8,1 11,4 3,2 3,7 3,11l0 8c0,4 0,9 -3,11 -3,3 -8,4 -11,4 -3,0 -5,0 -8,-2 -1,0 -1,-1 -2,-1l0 18 -7 0 0 -52 7 0 0 3zm0 18c0,2 0,5 2,7 2,2 5,2 7,2 2,0 5,0 6,-1 2,-2 2,-6 2,-8l0 -6c0,-2 0,-6 -2,-7 -1,-2 -4,-2 -6,-2 -2,0 -5,0 -7,2 -2,2 -2,5 -2,7l0 6z"/>
  <polygon class="fil6" points="313,99 313,92 312,93 312,92 313,91 314,91 314,99 "/>
  <path id="1" class="fil6" d="M316 99l0 -1 2 -4c0,0 0,0 0,0 0,0 0,0 0,0 0,0 0,0 0,0 0,-1 0,-1 0,-1 0,0 0,0 0,0 0,0 0,0 0,0 0,0 0,0 0,0 0,-1 0,-1 0,-1 -1,0 -1,0 -1,0 0,1 0,1 0,1l0 1 -1 0 0 -1c0,-1 0,-1 0,-1 1,-1 1,-1 2,-1 0,0 1,0 1,1 0,0 0,1 0,1 0,0 0,1 0,1 0,0 0,0 0,0 0,0 0,0 0,1 0,0 0,0 0,0l-2 3 2 0 0 1 -3 0z"/>
  <polygon id="2" class="fil6" points="320,99 320,98 321,98 321,99 "/>
  <polygon id="3" class="fil6" points="324,99 324,92 322,93 322,92 324,91 325,91 325,99 "/>
  <path id="4" class="fil6" d="M327 99l0 -1 2 -4c0,0 0,0 0,0 0,0 0,0 0,0 0,0 0,0 0,0 0,-1 0,-1 0,-1 0,0 0,0 0,0 0,0 0,0 0,0 0,0 0,0 0,0 0,-1 0,-1 -1,-1 0,0 0,0 0,0 0,1 0,1 0,1l0 1 -1 0 0 -1c0,-1 0,-1 0,-1 0,-1 1,-1 1,-1 1,0 1,0 2,1 0,0 0,1 0,1 0,0 0,1 0,1 0,0 0,0 0,0 0,0 0,0 0,1 0,0 0,0 0,0l-2 3 2 0 0 1 -3 0z"/>
  <polygon id="5" class="fil6" points="331,99 331,98 332,98 332,99 "/>
  <path id="6" class="fil6" d="M333 99l0 -1 2 -4c0,0 0,0 0,0 0,0 0,0 0,0 0,0 0,0 0,0 0,-1 0,-1 0,-1 0,0 0,0 0,0 0,0 0,0 0,0 0,0 0,0 0,0 0,-1 0,-1 0,-1 0,0 -1,0 -1,0 0,1 0,1 0,1l0 1 -1 0 0 -1c0,-1 0,-1 0,-1 1,-1 1,-1 2,-1 0,0 1,0 1,1 0,0 0,1 0,1 0,0 0,1 0,1 0,0 0,0 0,0 0,0 0,0 0,1 0,0 0,0 0,0l-2 3 2 0 0 1 -3 0z"/>
  <polygon id="7" class="fil6" points="339,99 339,98 337,98 337,97 339,91 340,91 338,97 339,97 339,95 341,95 341,97 341,97 341,98 341,98 341,99 "/>
  <path class="fil7" d="M349 20c-6,-2 -14,-2 -22,-2 -9,0 -17,0 -23,2 -6,2 -9,4 -9,6 0,2 3,4 9,6 6,2 14,2 23,2 8,0 16,0 22,-2 6,-2 10,-4 10,-6 0,-2 -4,-4 -10,-6zm-22 -2c7,0 15,1 20,3 6,1 9,3 9,5 0,2 -3,4 -9,5 -5,2 -13,3 -20,3 -8,0 -15,-1 -21,-3 -6,-1 -9,-3 -9,-5 0,-2 3,-4 9,-5 6,-2 13,-3 21,-3z"/>
  <path class="fil1" d="M583 1c5,0 10,1 14,2 3,2 6,3 6,6 0,2 -3,4 -6,5 -4,1 -9,2 -14,2 -6,0 -10,-1 -14,-2 -4,-1 -6,-3 -6,-5 0,0 0,-1 0,-1 0,0 0,0 0,0 0,0 0,0 0,0 1,0 1,0 1,0 0,2 2,3 5,4 3,1 7,2 12,2 5,0 9,-1 12,-2 3,-1 5,-2 5,-4 0,-2 -2,-3 -5,-4 -3,-2 -7,-2 -11,-3 0,0 0,0 0,0 0,0 0,0 0,0l0 0 1 0zm71 94c1,1 2,2 3,3 0,0 1,1 1,2 0,1 -1,2 -1,3 0,-1 0,-1 1,-1 0,0 0,-1 0,-1l24 -2c1,0 1,0 1,0 0,0 0,0 0,0 0,-1 0,-1 0,-1 0,0 0,0 0,0l-20 -12c0,0 -1,0 -1,0l0 0c0,0 0,0 0,0l-1 -1c0,0 0,0 0,0 0,0 0,0 0,0l1 0c0,0 0,0 1,0 0,0 0,0 0,0l21 12c0,1 0,1 0,1l0 0c0,0 1,0 1,0 0,0 0,1 0,1 0,0 0,0 0,0 0,0 0,0 0,0 0,0 0,1 0,1l0 14c0,1 0,1 0,1 0,0 0,0 0,0l-61 34c-1,1 -3,1 -4,1 -1,0 -2,-1 -3,-2l-16 -19c-1,0 -1,0 -1,0 0,0 0,-1 0,-1l-2 -14 0 0c-1,0 -1,0 0,-1l0 0c0,-1 0,-2 1,-3 1,0 1,-1 3,-1 0,0 0,0 0,0l23 -11c0,0 0,0 0,0 0,0 0,-1 0,-1 1,0 1,0 1,0 0,0 0,0 0,1 0,0 -1,0 -1,0 0,1 0,1 0,1 0,2 2,4 5,5 2,1 6,2 11,2 4,0 8,-1 10,-2 3,-1 5,-3 5,-5 0,0 0,-1 -1,-2 0,0 -1,-1 -2,-1 -4,2 -9,3 -14,3 -5,0 -9,-2 -14,-5 0,0 0,0 0,0 0,0 0,0 0,0 7,2 13,3 18,3 6,-1 10,-3 12,-5 1,-3 2,-6 3,-9 1,-6 3,-12 7,-17 2,-2 2,-4 2,-5 -1,-2 -1,-4 -2,-5 -3,2 -6,3 -10,4 -4,1 -9,2 -14,2 -8,0 -15,-2 -21,-4 -5,-2 -8,-5 -8,-8l0 -1c0,0 0,0 0,0 0,0 0,0 0,0 0,3 3,6 8,8 5,2 12,3 20,3 7,0 14,-1 19,-3 5,-2 8,-5 8,-8 0,-3 -3,-5 -8,-7 -5,-2 -11,-4 -19,-4 0,0 0,0 0,0 0,0 0,0 0,0l1 0c8,0 15,1 20,3 9,4 10,9 10,18 0,4 0,6 -1,8 -1,1 -2,2 -3,3 -1,1 -2,2 -3,4 -2,4 -3,8 -4,12 -1,4 -2,7 -3,8 -1,0 -1,1 -2,1 0,0 -1,0 -1,0zm1 9c-1,0 -1,1 -2,1 -3,2 -7,2 -12,2 -4,0 -8,0 -11,-1 -3,-1 -5,-3 -6,-5l-23 8c0,1 -1,1 -1,2 0,1 0,1 0,2l0 0c4,4 8,8 12,12l3 4c1,0 1,0 2,0 0,0 0,0 0,0l21 -19c0,0 0,0 0,0 4,0 8,-1 11,-2 2,-1 4,-2 6,-4zm-37 25c0,0 1,0 1,0 10,-5 21,-10 32,-15 10,-5 20,-10 30,-14l-23 4c-2,2 -5,4 -8,6 -4,1 -8,2 -11,1l-21 18zm-19 -14l3 12c0,0 0,0 0,0 0,0 0,0 0,1l17 16c0,0 1,1 2,1 0,0 1,0 1,-1l60 -32c0,0 1,0 1,0 0,-1 0,-1 0,-2l1 -9c0,0 0,0 0,0l-63 32c-1,0 -3,0 -4,0 -1,0 -2,0 -3,-1l-15 -17zm42 -76c6,0 11,1 14,2 4,2 6,4 6,6 0,2 -2,4 -6,5 -3,2 -8,2 -14,2 -6,0 -11,0 -14,-2 -4,-1 -6,-3 -6,-5 0,0 0,0 0,0 0,-1 0,-1 0,-1 0,0 0,0 0,0 0,0 0,0 0,0 0,2 3,4 6,5 3,1 7,1 12,1 5,0 9,0 12,-2 4,-1 5,-2 5,-4 0,-2 -1,-3 -4,-4 -3,-2 -7,-2 -12,-3 0,0 0,0 0,0 0,0 0,0 0,0l0 0 1 0zm-13 62l0 -4c0,0 0,0 0,0 0,0 0,0 0,0 4,1 9,2 13,2 4,0 9,-1 13,-2 0,0 0,0 0,0 0,0 0,0 0,0 -4,2 -7,3 -12,3 -4,1 -8,0 -13,-1l-1 2c0,0 0,1 0,1 0,0 0,-1 0,-1zm30 -27l0 1c0,0 0,0 0,1 -9,2 -16,3 -24,3 -6,-1 -12,-3 -18,-7 0,1 0,13 0,16 1,0 1,1 2,2 0,1 0,2 -1,4l0 4c0,0 0,0 0,0 -1,1 -2,1 -2,2 -6,6 -17,10 -29,10 -12,0 -24,-2 -32,-8 -1,-1 -1,-1 -2,-2 0,0 0,0 0,0 0,0 0,0 0,0 7,5 20,8 33,8 12,-1 23,-4 29,-10 0,0 0,-1 0,-2 0,-1 0,-2 0,-2 1,-1 2,-2 2,-3 0,-1 0,-2 0,-3 -2,6 -8,9 -16,11 -5,1 -12,2 -18,2 -6,-1 -12,-2 -17,-3 -7,-2 -12,-6 -13,-10 0,0 0,0 0,0 1,0 1,0 1,0 0,1 1,1 2,2 5,5 14,8 24,8 10,1 20,-1 26,-5 2,-1 3,-2 4,-3 0,0 0,-3 0,-5 0,-2 0,-4 0,-5 0,0 0,0 0,0 2,-1 3,-2 4,-3 1,-1 1,-3 1,-4 0,-1 0,-3 -1,-4 -1,-1 -3,-3 -5,-4 0,0 0,0 0,0 0,0 0,0 0,0 2,0 4,1 5,3 1,1 2,2 3,3 6,4 12,6 19,6 7,1 15,0 23,-4 0,0 0,0 0,0 1,0 1,0 1,1l-1 0zm-75 30c-12,0 -24,-3 -31,-8 0,0 0,0 0,0 0,0 0,0 0,0 8,4 20,7 32,7 10,0 21,-2 28,-8 0,0 0,0 0,0 1,0 1,0 1,0l0 2c0,0 0,0 -1,0 -7,5 -18,7 -29,7zm20 -19c-11,3 -24,4 -33,2 -9,-1 -16,-5 -17,-11 0,0 0,0 0,0 0,0 0,0 0,0 4,5 11,9 20,9 9,1 21,0 34,-4 0,0 0,0 0,0 0,0 0,0 0,0 0,1 -1,2 -1,2 -1,1 -2,2 -3,2 0,0 0,0 0,0zm-33 -23l0 -5c0,0 0,0 0,0 0,0 0,0 0,0 5,2 9,3 13,3 4,0 8,-1 12,-3 1,0 1,0 1,0 0,1 0,1 0,1 -4,2 -8,3 -12,3 -4,0 -8,0 -12,-2l-2 3c0,0 0,0 0,0 0,0 0,0 0,0zm26 -6c1,1 2,1 2,2 1,1 1,2 1,3 0,2 -2,3 -5,5 -3,1 -7,2 -11,2 -5,0 -9,-1 -12,-2 -3,-2 -4,-3 -4,-5 0,-1 0,-1 0,-2 0,0 0,-1 1,-1 0,0 0,0 0,0 0,0 0,0 0,0 0,0 0,1 0,1 0,0 0,1 0,1 0,2 1,3 4,4 3,1 6,2 10,2 5,0 8,-1 11,-2 3,-1 4,-2 4,-4 0,-1 0,-1 0,-2 -1,-1 -1,-1 -2,-2 -5,3 -9,4 -14,3 -4,0 -9,-1 -13,-4 -1,0 -1,0 -1,0 1,0 1,0 1,0 6,2 12,3 17,2 5,0 10,-2 11,-4 2,-3 2,-6 3,-9 2,-6 3,-12 8,-17 1,-1 1,-3 1,-5 0,-1 -1,-3 -2,-4 -2,1 -6,3 -10,4 -4,1 -8,1 -13,1 -8,0 -15,-1 -20,-3 -5,-2 -9,-5 -9,-8l0 -1c0,0 1,0 1,0 0,0 0,0 0,0 0,3 3,6 8,8 5,2 11,3 19,3 7,0 14,-2 18,-3 5,-2 8,-5 8,-8 0,-3 -3,-5 -7,-7 -5,-2 -12,-4 -19,-4 0,0 0,0 0,0 0,0 0,0 0,0l1 0c7,0 14,1 20,3 9,4 9,9 9,18 0,3 0,6 -1,7 -1,1 -2,2 -3,3 -1,1 -2,2 -3,4 -1,4 -3,8 -4,12 -1,4 -2,7 -3,8 0,0 -1,0 -1,1 -1,0 -1,0 -1,0zm3 -19c0,0 0,0 0,0 -8,2 -16,3 -23,3 -7,-1 -13,-4 -19,-7 0,-1 0,-1 0,-1 0,0 0,0 0,0 6,3 13,6 20,6 7,1 15,0 23,-4 0,0 0,0 0,0 0,1 0,1 0,1l-1 2z"/>
  <path class="fil8" d="M67 1c18,0 35,8 47,20 12,12 19,29 19,47 0,18 -7,35 -19,47 -12,12 -29,20 -47,20 -19,0 -35,-8 -47,-20 -13,-12 -20,-29 -20,-47 0,-18 7,-35 20,-47 12,-12 28,-20 47,-20zm43 24c-11,-11 -26,-18 -43,-18 -17,0 -32,7 -44,18 -11,11 -17,26 -17,43 0,17 6,32 17,43 12,11 27,18 44,18 17,0 32,-7 43,-18 11,-11 18,-26 18,-43 0,-17 -7,-32 -18,-43z"/>
  <g id="_2744405976832">
   <path class="fil9" d="M69 120c0,0 0,0 0,0zm-5 -23c0,1 0,1 0,0zm-18 22c0,1 0,1 0,0zm1 -32c0,0 0,0 0,0zm35 13c0,0 0,0 0,0zm-38 15c0,0 0,0 0,0zm20 2c0,0 0,0 0,0zm1 1c0,0 0,0 0,0zm4 0c1,0 1,0 0,0zm-8 1c0,0 0,0 0,0zm9 0c1,0 1,0 0,0zm5 1c0,0 0,0 0,0zm5 1c0,0 0,0 0,0zm-12 -36c0,1 0,1 0,0zm0 0c0,1 0,1 0,0zm-4 14c0,0 0,0 0,0 0,0 0,0 0,0zm-1 -1c0,0 0,0 0,0 0,0 0,1 0,1 0,0 -1,0 -1,0 0,0 0,0 0,0 0,0 0,0 -1,0 1,0 1,0 1,0 0,0 1,1 1,1 0,0 0,-1 0,-1 0,0 0,0 0,1 0,-1 0,-1 0,-2zm0 2l1 0c-1,-1 -1,-1 -1,-1 0,0 0,1 0,1 0,0 0,-1 0,-1 0,0 0,0 1,1l0 0c0,0 0,-1 0,-1l0 0 0 0 0 0 0 0 0 0 0 0 0 0 0 0 0 0 0 0 0 0 0 0 0 0 0 0 0 0 0 0 0 0 0 0 0 0 0 0 0 0 0 0 0 0 0 0 0 0 0 0 0 0 0 0 0 0c0,0 0,0 0,0l0 0 0 0 0 0 0 0 0 0 0 0 0 0 0 0 0 0 0 0 0 0 0 0 0 0 0 0 0 0 0 0 0 0 0 0 0 0 0 0 0 0 0 0 0 0 0 0 0 0 0 0 0 0 0 0 0 0 0 0 0 0 0 0 0 0 0 0 0 0 0 0 0 0c0,0 0,0 0,0l0 0 0 0 0 0 0 0 0 0 0 0 0 0 0 0 0 0 0 0c0,0 0,0 0,0l0 0 0 0 0 0 0 0 0 0 0 0 0 0 0 0 0 0 0 0 0 0 0 0c0,0 0,0 0,0l0 0 0 0 0 0 0 0 0 0 0 0 0 0 0 0 0 0 0 0 0 0 0 0 0 0 0 0 0 0 0 0 0 0 0 0 0 0 0 0 0 0 0 0 0 0 0 0 0 0 0 0 0 0 0 0 0 0 0 0 0 0 0 0 0 0 0 0 0 0 0 0 0 0 0 0 0 0 0 0 0 0 0 0 0 0 0 0 0 0 0 0 0 0 0 0 0 0 0 0 0 0 0 0 0 0 0 0 0 0 0 0 0 0 0 0 0 0 0 0 0 0 0 0 0 0 0 0 0 0 0 0 0 0 0 0 0 0 0 0 0 0 0 0 0 0 0 0c0,0 0,0 -1,0 0,0 0,0 0,0 0,0 1,0 1,0 0,0 -1,-1 -1,-1 0,0 0,1 0,1 0,0 0,-1 0,1zm14 -19c0,0 0,0 0,0 -1,0 0,0 0,1 -1,0 -1,1 -1,2 1,0 1,0 2,0 0,0 0,1 1,1 0,0 0,0 0,0 1,0 1,0 1,0 1,0 1,0 1,0 1,1 1,1 2,1 0,0 0,0 1,0 0,0 1,0 1,1 0,0 1,0 1,0 0,0 1,1 1,1 0,0 1,0 1,1 0,0 -1,0 -1,0 0,0 1,0 1,0 -1,1 0,1 -1,2 0,0 0,1 0,1 -1,1 -1,1 -1,2 0,0 1,0 1,0 0,0 0,0 0,1 0,0 1,0 1,0 0,0 0,0 1,0 0,1 0,2 0,2 0,1 0,1 0,1 0,1 0,1 0,2 0,0 0,1 0,1 0,1 0,1 0,2 -1,0 -1,1 -2,1 0,0 0,0 -1,1 0,0 -1,0 -1,0 -1,0 -2,0 -2,1 -1,0 -1,0 -2,0 0,1 0,2 0,2 0,1 -1,2 -1,2 0,0 0,0 0,0 1,0 1,0 2,0 1,0 1,0 1,1 1,0 2,0 3,0 0,0 1,1 1,1 0,0 1,0 1,0 0,1 0,1 1,1 0,0 0,1 0,1 1,0 0,1 1,1 0,1 0,1 0,2 0,0 0,0 0,0 0,1 0,1 0,2 0,0 0,0 -1,0 0,0 0,0 0,0 0,0 1,0 1,0 0,0 0,0 0,1 0,-1 0,-1 0,0 0,0 0,0 -1,0 0,0 0,0 0,0 0,0 0,0 0,0 0,0 0,0 0,0 0,0 0,0 0,0 0,0 0,0 0,0 1,0 1,0 1,0 0,0 0,0 0,0 0,0 0,0 0,0 0,1 0,1 0,1 0,-1 1,0 1,0 -1,0 -2,0 -3,0 0,0 0,-1 0,-1 0,0 0,0 0,1 0,0 0,0 0,0 0,0 0,0 0,0 -1,0 -1,0 -1,0 -1,0 -1,0 -1,0l0 0c0,0 -1,0 -1,0 0,0 0,0 0,0 -1,0 -1,0 -1,0 0,1 0,1 0,1 -1,0 -2,-1 -2,-1 -1,1 -2,0 -2,1 0,-1 0,-1 0,-1 -1,0 -1,0 -2,0 0,0 0,0 0,0 0,0 -1,-1 -2,0 0,0 0,0 0,-1 0,0 0,1 0,1 -1,0 -1,0 -1,0 -1,0 -1,0 -1,0 1,0 1,0 1,-1 0,0 -1,0 -1,0 -1,0 -1,0 -1,0 0,0 0,-1 0,-1 0,0 0,0 0,0 0,1 0,1 0,1 -1,0 -1,0 -1,0 0,0 0,0 0,0 0,0 0,0 -1,0 0,0 0,0 -1,0 0,0 0,0 0,0 -1,0 -1,-1 -2,0 0,-1 0,-1 0,-1 0,0 0,0 0,0 0,0 0,0 0,0 0,0 1,0 1,0 0,0 0,0 0,0 0,0 0,0 0,0 0,0 0,0 0,0 0,0 0,0 0,0 0,0 0,0 0,0 0,0 0,0 0,0 1,0 1,0 1,0 0,0 0,0 0,0 0,0 0,0 0,0 0,0 0,0 0,0 0,0 0,0 0,0 0,0 0,0 0,0 0,0 0,-1 0,-1 0,0 0,1 0,1 -1,0 -1,-1 -2,0 0,0 0,-1 0,-1 1,0 1,0 1,0 0,0 0,0 0,0 0,0 0,0 0,0 0,0 0,0 0,0 -1,0 -1,0 -1,0 0,0 0,0 0,0 0,0 0,0 0,0 0,0 0,0 -1,0 0,0 0,0 0,0 0,0 0,0 0,0 0,0 0,0 0,0 0,0 0,0 0,0 0,0 0,0 0,0 -1,1 -1,0 -2,0 0,1 0,1 -1,0 0,0 0,1 -1,1 1,0 1,0 1,0 -1,0 -1,0 -1,0 -1,0 -1,0 -2,0 0,0 0,0 0,0 -1,0 -1,0 -1,0 0,0 0,0 0,0 -1,0 -1,0 -2,0 0,0 0,0 0,0 -1,0 -1,0 -2,0 0,0 0,0 0,0 1,0 1,0 1,0 1,0 2,0 2,0 0,0 0,0 0,0 0,0 0,0 0,0 0,0 0,0 0,0 -1,0 -2,0 -3,0 -1,0 -2,1 -3,0 0,0 -1,0 -1,1 0,-1 0,-1 1,-1 -1,0 -1,0 -1,0 0,0 0,0 0,1 0,-1 -1,-1 -1,-1 0,1 0,1 0,1 -1,0 -1,0 -1,0 0,0 0,0 0,-1 0,0 0,0 0,0 -1,0 -1,1 -2,0 0,0 0,0 -1,0 0,0 -1,0 -1,0 0,0 0,0 0,0 0,0 0,0 0,0 0,0 -1,0 -1,0 0,0 -1,-1 -1,0 0,-1 -1,-1 -1,-1 0,0 0,0 0,0 -1,-1 -1,-1 -1,-1 -1,-1 -1,-1 -1,-2 0,0 0,-1 0,-2 1,0 1,-1 1,-1 0,-1 1,-1 1,-1 0,0 1,-1 1,-1 1,-1 2,-1 3,-1 1,0 2,0 3,0 0,0 0,0 1,0 0,0 1,0 1,0 1,0 1,0 1,0 0,-1 0,-1 0,-2 0,0 0,-1 0,-1 0,0 0,0 0,-1 0,0 -1,0 -1,0 0,0 -1,0 -1,0 -1,0 -2,0 -2,-1 -1,0 -2,0 -3,-1 0,0 -1,0 -2,0 0,-1 0,-1 0,-1 0,0 0,0 0,0 0,0 -1,0 -1,-1 0,0 0,0 0,0 0,0 0,0 -1,0 0,0 0,-1 0,-1 -1,0 0,0 0,0 -1,-1 -1,-1 0,-1 -1,-1 0,-1 0,-2 -1,0 0,-1 0,-1 0,-1 0,-1 0,-2 1,0 1,0 1,-1 0,0 0,0 0,-1 0,0 0,0 0,-1 0,0 0,0 0,0 0,0 0,0 0,0 0,0 0,0 1,0 -1,-1 -1,-1 -1,-1 0,-1 0,-1 0,-2 0,0 1,-1 1,-1 0,0 0,-1 1,-1 0,0 1,0 1,-1 0,0 1,0 1,0 1,0 1,-1 2,-1 0,0 1,0 1,0 1,0 1,0 2,0 0,0 0,0 1,0 0,-1 0,-1 1,-1 0,1 0,0 1,0 0,1 0,1 1,0 0,0 0,0 1,0 0,0 0,0 0,0 1,0 1,0 1,0 0,-1 0,-2 0,-2 0,-1 0,-1 0,-1 0,0 1,0 1,0 5,1 9,2 14,1 1,0 3,0 4,0zm-9 13c0,0 0,1 0,0zm-6 2c0,0 -1,0 -1,0 0,0 0,0 0,0 0,0 0,0 0,0 0,-1 1,-1 1,0 0,0 0,0 0,0zm1 0c-1,0 -1,0 -1,0 0,0 -1,0 -1,0 0,0 1,0 1,0 0,0 1,0 2,1 0,-1 0,-1 0,-1 -1,0 -1,0 -1,-1 0,1 0,1 0,1 0,0 0,0 0,0zm7 4c0,0 0,0 0,0 0,0 0,0 0,0 0,0 0,0 1,0 -1,0 -1,0 -1,0zm0 -1c0,0 0,0 0,0 0,0 0,0 0,0 0,0 0,0 0,0zm-6 0c0,0 0,0 0,0 0,0 0,0 0,0zm0 -1c0,0 0,0 0,1 0,0 0,0 0,-1zm-1 1c0,0 0,0 0,0 0,0 0,0 0,0zm7 -2c0,0 0,0 0,0zm-4 0c0,0 0,0 0,0 0,0 -1,0 0,0zm7 -3c0,0 0,1 0,0zm-2 0c1,0 1,0 1,0 0,0 0,0 -1,0zm-3 1c0,-1 0,-1 0,-1 0,0 0,0 0,0 1,0 1,0 1,0 0,0 0,0 0,0 0,0 0,0 0,0 0,0 0,0 0,1 0,-1 -1,-1 -1,0 0,0 0,0 0,0zm5 -1c0,0 0,0 -1,0 0,0 1,0 1,0zm-7 5c0,0 0,0 1,0 0,0 -1,0 -1,0zm-1 1l0 0c0,-1 0,-1 0,-1 0,0 1,0 1,0 0,0 0,0 0,0l0 0c0,1 0,1 0,1 0,0 0,0 0,0 0,0 0,0 0,-1 0,1 1,1 1,1 0,0 0,0 0,0 0,0 0,0 1,0 0,0 1,0 1,0 0,0 0,0 0,0 0,0 0,0 0,0 0,0 0,0 0,0 -1,0 -1,0 -1,0 -1,0 -1,0 -2,0 0,0 0,0 0,0l0 0c0,0 -1,0 -1,0 0,0 0,0 0,0 0,0 0,0 0,0 0,0 -1,0 -1,0 -1,0 -1,1 -1,1 0,0 0,0 0,0 -1,0 -1,-1 -1,0 -1,0 -1,-1 -1,-1 1,0 1,1 2,0 0,0 -1,0 -1,0 1,0 1,1 1,0 0,0 0,0 0,0 0,0 -1,0 -1,0 -1,0 -1,0 -2,0 0,0 -1,0 -1,0 0,0 -1,0 -1,0 -1,0 -2,0 -2,-1 -1,0 -2,0 -3,0 -1,0 -2,0 -2,-1 -1,0 -1,0 -2,0 0,0 0,0 0,0 0,0 -1,0 -1,-1 -1,0 -2,0 -3,-1 0,0 0,0 0,0 0,0 0,0 0,0 0,-1 0,-1 1,-2 0,0 0,-1 0,-1 0,-1 0,-1 0,-1 0,-1 0,-2 0,-2 0,0 1,0 1,0 0,0 1,0 1,0 0,0 -1,0 -1,-1 0,0 0,0 0,0 0,0 -1,0 -1,0 0,0 0,-1 0,-1 0,0 0,0 0,-1 0,1 0,1 0,1 1,0 1,0 1,0 0,0 0,0 0,0 1,0 1,0 1,0l0 0c0,0 0,0 1,-1l0 1 0 0c0,0 0,0 0,0l0 0c0,0 0,0 0,0 0,0 0,0 -1,0 0,0 0,1 1,1 -1,0 -1,0 -1,0l0 0c0,0 0,0 0,0 0,0 0,0 1,0 0,0 0,0 0,0 0,0 0,1 1,1 0,0 0,0 0,0 0,0 1,0 1,0 1,0 1,1 2,1 0,0 0,0 0,0 1,0 1,0 1,0 0,0 0,0 0,0 0,0 1,0 1,0 1,0 1,0 1,1 0,0 0,0 0,0 0,0 1,0 1,0 0,0 1,0 1,0 1,0 1,0 1,0 0,0 1,0 1,0 0,0 0,1 0,1 0,0 0,0 0,0 0,-1 0,-1 0,-1 1,0 2,0 2,0 1,0 2,1 2,0 1,0 1,1 1,1 1,0 2,0 2,0 0,0 1,0 1,0 0,0 0,0 0,0 0,0 1,0 1,0 1,0 1,0 1,0 1,0 1,0 1,0 0,0 0,0 1,0 0,0 0,0 0,0 -1,0 -1,0 -1,0 -1,0 -2,0 -2,0 -1,0 -1,0 -2,0 0,0 0,0 0,0 0,0 0,0 0,0 -1,0 -3,0 -4,0 0,0 -1,0 -1,0 -1,0 -1,0 -2,0 0,0 -1,0 -1,0 0,0 0,0 0,-1 0,1 -1,1 -1,1 0,0 0,0 0,0 0,0 0,0 -1,0 0,0 1,-1 1,-1 -1,0 -1,0 -1,0 0,0 0,0 0,0 -1,0 -1,0 -1,0 0,0 0,0 0,0 0,0 -1,0 -1,0 0,0 -1,0 -1,0 0,0 -1,0 -1,-1 -1,0 -2,0 -2,0 0,0 0,0 0,0 -1,0 -1,0 -1,0 0,0 -1,0 -1,0 0,-1 0,-1 0,-1 0,0 -1,0 -1,0 0,0 0,0 0,1 0,0 1,0 1,0 0,0 0,1 1,1 0,0 1,0 2,0 1,1 1,1 2,1 0,0 0,0 0,0 0,0 1,0 1,0 0,0 0,0 0,0 0,0 0,0 -1,0 1,0 1,0 1,0 0,0 0,0 0,0 0,0 0,0 0,-1 0,1 1,1 1,1 0,0 0,0 0,0 0,0 0,0 0,0 0,0 0,0 0,0 0,0 -1,0 -1,0 1,0 1,0 1,0 1,0 1,0 2,0 0,0 0,0 0,0 0,1 1,1 2,1 0,0 1,0 2,0 0,0 0,0 0,0 0,0 0,0 0,0 0,0 0,0 0,0 1,0 1,0 1,0 0,0 1,0 1,0 1,0 1,0 1,0 0,0 1,0 1,0 0,0 0,1 0,1 -1,-1 -1,-1 -2,-1 0,0 0,0 0,1 0,0 0,0 0,0 0,0 0,0 0,0 -1,0 -1,0 -1,0 0,0 0,0 0,-1 0,1 0,1 -1,0 0,0 0,1 0,1 0,0 0,-1 0,-1 0,1 -1,1 -1,1 0,-1 0,-1 0,-1 0,0 -1,1 -1,1 0,0 1,0 1,0 0,0 0,0 0,0 0,0 0,0 1,0 0,0 -1,0 -1,0 0,0 1,0 1,0 0,0 0,0 0,0 0,0 1,0 1,0 0,0 -1,0 -1,1 0,0 1,-1 1,0 0,0 0,-1 0,-1 0,0 1,0 1,0 0,0 -1,0 -1,0 1,0 1,0 1,0 0,0 0,0 0,0 0,0 0,1 0,1 0,0 1,-1 1,0 0,0 -1,0 -1,0l0 0c0,0 0,0 0,0 0,0 1,0 1,0 0,0 0,0 0,0 1,0 1,0 1,0 0,0 0,1 1,0 0,1 0,1 0,1 0,0 0,0 1,0 -1,0 -1,0 -2,0 1,0 1,0 1,0 -1,0 -1,0 -2,0 0,0 -1,0 -2,0 0,0 0,0 0,0 0,0 0,0 0,0 0,0 0,0 -1,0 0,0 1,0 1,0 -1,0 -1,0 -1,0 0,0 0,0 0,0 0,0 -1,0 -1,0 0,0 0,0 0,0 -1,0 -1,0 -1,0 0,0 1,0 1,0 0,0 0,0 0,0 1,0 1,0 1,1 0,-1 0,-1 0,-1 0,0 0,0 0,0 1,0 1,0 1,0 0,0 0,0 0,0 0,0 1,0 1,1 0,0 0,0 0,0 1,0 1,0 1,0 1,0 1,0 1,0 0,0 -1,0 -1,0 0,0 0,0 0,0 0,0 0,0 0,0 0,0 0,0 0,1 0,-1 0,-1 0,-1 0,0 0,0 0,1 0,-1 0,-1 -1,-1 1,0 1,0 1,0 -1,0 -1,0 -1,0 0,0 0,0 0,0 -1,0 -1,0 -1,0 0,0 0,1 0,1 0,0 0,-1 0,-1 0,0 1,1 1,1 0,0 -1,0 -1,0 0,0 0,0 0,0 1,0 1,0 1,0l0 0 0 0 0 0 0 0c0,0 1,0 1,1zm-1 -1c0,0 0,0 0,0l0 0 0 0 0 0 0 0 0 0 0 0 0 0 0 0 0 0 0 0 0 0 0 0 0 0 0 0 0 0 0 0 0 0 0 0 0 0 0 0 0 0 0 0 0 0 0 0 0 0 0 0 0 0 0 0 0 0 0 0 0 0 0 0 0 0 0 0 0 0 0 0 0 0 0 0 0 0 0 0 0 0 0 0 0 0 0 0 0 0 0 0 0 0 0 0 0 0 0 0 0 0 0 0 0 0 0 0 0 0 0 0 0 0 0 0 0 0 0 0 0 0 0 0 0 0 0 0 0 0 0 0 0 0 0 0 0 0 0 0 0 0 0 0 0 0 0 0 0 0 0 0 0 0 0 0 0 0 0 0 0 0 0 0 0 0 0 0 0 0 0 0 0 0 0 0 0 0 0 0 0 0 0 0 0 0 0 0 0 0 0 0 0 0 0 0 0 0 0 0 0 0 0 0 0 0 0 0 0 0 0 0 0 0 0 0 0 0 0 0 0 0 0 0 0 0 0 0 0 0 0 0 0 0 0 0 0 0 0 0 0 0 0 0 0 0 0 0 0 0 0 0 0 0 0 0 0 0 0 0 0 0 0 0 0 0 0 0 0 0 0 0 0 0 0 0c0,0 0,0 0,0zm0 0c0,0 0,0 0,0 0,0 0,0 0,0zm-1 -3c0,0 0,0 0,0zm2 3c0,0 0,0 0,0 0,0 0,0 0,0zm2 -3c1,0 1,0 1,0 0,0 1,0 1,0 0,0 0,0 1,0 -1,0 -1,0 -1,0 -1,0 -1,0 -1,0 0,0 0,0 0,0 0,0 0,0 0,0 0,0 -1,0 -1,0zm-2 0c1,0 0,0 0,0zm8 -2c0,0 0,1 0,0zm0 0c1,0 1,0 1,0 0,0 0,0 0,0 0,0 -1,0 -1,0zm-25 -4c0,0 0,1 0,1 0,0 0,-1 0,-1zm11 4c0,0 1,0 1,0 -1,0 -1,0 -1,0zm1 0c0,0 1,0 1,0 0,0 -1,0 -1,0zm-1 1c0,0 0,0 0,0 0,0 0,0 0,0zm-1 0c1,1 2,1 2,1 0,-1 0,-1 -1,-1 0,0 0,0 -1,0zm3 1c0,0 0,0 0,0 0,0 0,0 0,0zm-3 0c0,0 1,0 1,0 0,0 0,0 -1,0zm2 0c0,0 0,0 1,0 -1,0 -1,0 -1,0zm-1 1c0,0 0,0 0,0 0,0 0,0 0,0zm-1 1c0,0 0,0 0,0 0,0 0,0 0,0 1,0 1,0 2,0 -1,0 -1,0 -2,0zm1 0c1,0 1,0 1,0 0,0 0,0 0,0 0,0 1,0 1,0 0,0 0,0 0,0 0,0 0,0 0,0 0,0 0,0 1,1 0,-1 0,-1 0,-1 0,0 0,0 0,0 0,0 0,0 0,0 -1,0 -1,0 -2,0 0,0 0,0 -1,0zm3 0c0,0 0,0 0,0 0,0 1,0 1,0 0,0 0,0 0,0 0,0 -1,0 -1,0zm5 -13c0,0 1,0 1,0 0,0 0,1 1,1 -1,0 -1,0 -1,0 0,0 0,0 0,0 0,0 -1,0 -1,0 0,0 0,-1 0,-1zm-8 -4c2,0 3,1 4,1 0,0 0,0 0,0 1,0 1,0 1,0 1,0 1,0 2,0 0,0 1,0 1,0 1,0 1,0 2,0 0,1 0,1 0,1 0,0 0,0 0,0 1,0 1,0 1,0 0,0 -1,0 -2,0 0,0 0,0 0,0 0,0 0,0 0,0 0,0 0,0 0,1 -1,0 -1,0 -1,0 0,0 0,0 0,0 0,0 0,0 0,0 1,0 1,0 1,0 0,0 1,0 2,0l-1 0c1,0 1,0 1,0 0,0 0,1 -1,1 0,0 0,0 0,0 0,0 0,0 0,0 0,0 0,0 0,-1 0,1 -1,1 -1,1 0,0 0,0 0,0 0,0 0,0 -1,0 0,0 1,0 1,0 -1,0 -1,0 -1,0 0,0 0,0 0,0 0,0 0,1 0,1 0,0 1,0 1,0 0,0 0,0 0,0 0,0 0,0 1,0l0 0c0,0 0,-1 0,-1 0,0 0,1 0,1 0,0 0,0 0,0 0,0 1,0 1,0 0,0 -1,0 -1,-1 1,1 1,1 1,1 0,0 0,0 0,0 0,0 0,0 0,0 -1,0 -1,0 -1,0 -1,0 -1,0 -2,0 0,0 0,1 0,1 0,0 0,0 0,0l0 0c0,0 1,0 1,0 0,0 0,0 1,0 -1,0 -1,0 -1,0 0,0 0,0 -1,0 0,0 0,0 0,0 0,0 0,0 0,0 -1,0 -2,0 -3,0 0,0 -1,0 -1,0 -1,0 -2,0 -2,0 -1,0 -1,-1 -2,-1 0,0 0,0 0,0 0,0 0,0 0,0 0,-1 0,-1 0,-2 0,0 0,-1 0,-1 0,-1 0,-1 0,-1 0,0 0,-1 0,-1zm6 33c0,-1 0,-1 0,-1 0,0 0,0 0,0 1,0 1,0 1,0 0,0 0,0 0,1 -1,-1 -1,0 -1,0 -1,-1 -1,-1 -2,-1 1,0 1,0 2,1zm10 7c0,0 1,0 1,0 0,0 0,0 0,0 0,0 0,0 0,0 1,0 2,0 3,0 0,0 0,0 0,0 -1,0 -3,0 -4,0zm-2 0c1,0 1,0 1,0 0,0 1,0 1,0 0,0 -1,0 -1,0 0,0 0,0 -1,0zm4 0c0,0 0,0 0,0 0,0 0,0 0,0zm-3 0c0,0 0,0 0,0 0,0 0,0 0,0zm-1 0c0,0 0,0 0,0 0,0 0,0 0,0zm18 0c0,-1 0,0 0,0 0,0 0,0 0,0zm-18 -1c0,0 0,0 0,1 0,0 0,0 0,-1zm-1 0c0,0 0,0 0,1 0,0 0,0 0,-1zm-2 0c0,0 0,0 0,0 0,0 0,0 0,1 1,0 1,-1 1,-1 0,0 0,1 0,1 -1,0 -1,0 -1,0 0,0 0,0 0,0 0,0 0,0 0,-1 0,0 0,0 0,0zm-2 0c1,0 0,0 0,0zm0 0c0,0 0,0 0,0 0,0 0,0 0,0zm-1 0c0,0 0,0 0,0 0,0 0,0 0,0zm-20 0c0,0 0,0 0,0 1,0 1,0 1,0 1,0 1,0 1,0 0,0 0,0 0,0 1,0 1,0 2,0 -1,0 -1,0 -2,0 0,0 -1,0 -1,0 0,0 -1,0 -1,0zm6 0c0,0 1,0 2,0 0,0 0,0 0,0 0,0 -1,0 -1,0 -1,0 -1,0 -1,0zm-8 0c1,0 1,0 2,0 0,0 0,0 0,0 -1,0 -1,0 -2,0 0,0 0,0 0,0zm46 -1c0,0 1,0 1,0 0,0 0,0 0,1 -1,0 -1,0 -1,0 0,0 0,-1 0,-1zm-45 0c1,0 0,1 0,0zm-1 0c1,0 1,0 1,1 -1,0 -1,0 -1,-1zm19 0c1,0 1,0 2,1 0,-1 -1,0 -1,-1 -1,0 -1,0 -1,1 0,-1 0,-1 0,-1zm0 0c0,0 0,0 0,0 0,0 0,0 0,0 -1,0 -1,0 -2,0 0,0 0,0 0,0 0,0 0,0 0,0 0,0 1,0 2,0zm-3 0c0,0 0,0 1,0 -1,0 -1,0 -1,0zm-1 0c0,0 0,0 0,0 0,0 0,0 0,0zm13 0c0,0 1,0 1,0 0,0 0,0 0,0l0 0c0,0 -1,0 -1,0 0,0 0,0 0,0 0,0 0,0 0,0zm-7 0c1,0 1,0 2,0 0,0 0,0 0,0 0,1 -1,1 -1,0 0,0 0,0 -1,0 0,0 0,0 0,0zm29 0c0,0 0,0 0,0 0,0 -1,0 0,0zm-5 0c1,0 1,0 2,0 0,0 0,0 0,0 -1,0 -1,0 -2,0zm-26 0c0,0 1,0 1,0 0,0 0,0 -1,0 0,0 0,0 0,0zm2 0c1,-1 0,0 0,0zm-23 0c0,0 1,0 1,0 0,0 -1,0 -1,0zm21 -2c0,0 0,0 0,0 0,0 0,0 0,0zm1 0c0,-1 1,0 1,0 0,0 0,0 0,0 0,0 -1,0 -1,0zm5 -1c0,0 1,0 1,0 0,0 0,0 0,0 0,0 0,0 0,0 0,0 0,0 0,0 -1,0 -1,0 -2,0 0,0 0,0 1,0zm1 -1c0,0 0,0 0,0 0,0 0,0 0,1 0,0 0,0 0,0 0,-1 0,-1 0,-1zm-1 0c0,0 0,0 0,0 0,1 0,0 0,0zm0 0c0,0 0,1 0,0zm-3 0c1,0 1,0 2,0 0,0 0,0 -1,1 0,-1 0,-1 0,-1 0,0 -1,0 -1,0zm-2 0c0,0 1,0 1,0 0,0 1,0 1,0 0,0 0,0 0,0 0,0 0,0 -1,0 0,0 -1,0 -1,0zm-2 0c1,0 1,0 1,0 0,0 0,0 0,0 0,0 0,0 -1,0zm-1 0c1,0 1,0 1,0 0,0 0,0 -1,0 0,0 0,0 0,0zm7 -1c1,0 0,1 0,0zm-1 0c0,0 0,0 1,0 -1,0 -1,0 -1,0 0,0 0,0 0,0zm-1 -1c0,0 0,0 0,0 0,1 -1,0 0,0zm-1 0c0,0 0,0 0,0 0,1 0,0 0,0zm-3 -13l0 0 0 0c0,0 0,0 0,0 0,0 0,0 1,0l0 0c0,0 0,0 0,0 0,0 1,0 1,0 0,0 -1,0 -1,-1 0,0 0,0 0,0 0,0 1,0 1,1 0,0 0,0 0,0 0,0 0,0 0,0 0,0 0,0 0,0 0,0 0,0 0,0 1,0 1,-1 0,0 0,-1 0,-1 0,-1 0,0 1,0 1,0 0,0 0,0 0,0l0 0c0,1 0,1 0,1 0,0 0,0 0,0 0,0 0,0 0,-1 0,1 1,1 1,1 0,0 0,0 0,0 0,0 0,0 1,0 0,0 1,0 1,0 0,0 0,0 0,0 0,0 0,0 0,0 0,0 0,0 0,0 -1,0 -1,0 -1,0 -1,0 -1,0 -2,0 0,0 0,0 0,0l0 0c0,0 0,0 0,0 -1,0 -1,0 -1,0 0,0 0,0 0,0 0,0 0,0 0,0 0,0 -1,0 -1,0 -1,0 -1,1 -1,1 0,0 0,0 0,0 -1,0 -1,-1 -1,0 -1,0 -1,-1 -1,-1 1,0 1,1 2,0 0,0 -1,0 -1,0 1,0 1,1 1,0zm-16 -10c0,0 0,-1 0,0zm36 2c0,0 0,0 0,0 0,0 0,0 0,0 0,0 -1,0 -1,0 -1,0 -1,0 -1,0 0,0 0,0 0,1 0,-1 -1,-1 -1,0 0,0 0,0 0,0 0,0 0,0 1,0 0,0 0,0 0,0 0,0 0,0 0,0 0,0 0,0 0,0 0,0 0,0 0,0 0,0 1,0 1,0 0,0 0,0 0,0 0,0 0,0 0,0 0,0 1,0 1,0 1,0 1,-1 1,-1 0,0 0,0 0,0 0,0 0,0 0,0 0,0 -1,0 -1,0zm-26 0c0,1 0,1 0,1 0,-1 0,-1 0,-1zm22 0c0,1 0,1 0,1 0,0 0,0 0,0 0,0 0,0 0,0 -1,0 -1,0 -2,0 0,0 0,0 0,0 0,0 0,0 -1,0 0,0 0,0 0,0 0,0 0,0 0,0 0,0 0,0 -1,0 1,0 2,0 2,0 0,0 1,0 1,0 0,0 0,0 0,0 0,0 0,0 0,0 0,0 0,0 0,0 1,0 1,0 2,0 0,0 0,0 0,0 0,0 0,0 0,0 0,0 0,0 -1,0 1,0 1,0 1,-1 0,0 -1,0 -1,0zm-4 1c0,0 0,0 0,0 0,0 0,0 0,0 0,0 0,0 0,0 0,0 0,0 0,0zm1 0c0,0 0,0 0,0zm-4 0c0,0 0,0 0,0 0,0 1,0 1,0 0,0 0,0 1,0 -1,0 -2,0 -2,0zm6 0c0,0 0,0 0,0 0,0 0,0 0,0zm-14 0c0,1 0,0 0,0zm21 6c1,0 1,0 2,0 -1,0 -1,0 -2,0zm-1 1c1,0 1,0 1,-1 0,1 0,0 -1,1zm-1 0c1,0 1,0 1,0 0,0 0,0 0,0 0,0 -1,0 -1,0zm-1 0c0,0 0,0 0,0 0,0 1,0 1,0 0,0 0,0 -1,0zm0 0c0,0 0,0 0,0zm-3 0c0,1 1,1 1,0 0,0 0,0 -1,0zm-6 1c0,0 0,0 0,0 0,0 0,0 0,0 0,0 0,0 -1,0 1,0 1,0 1,0 0,0 1,0 1,0 0,0 0,0 0,0 0,0 -1,0 -1,0 0,0 0,0 0,0zm-2 0c1,0 1,0 1,0 0,0 0,0 -1,0zm0 0c0,1 0,1 0,1 0,-1 0,-1 0,-1zm-14 5c0,0 0,0 0,0 0,0 0,0 0,0zm1 0c0,0 1,0 1,0 0,1 0,1 0,2 0,0 0,1 0,2 0,0 1,0 1,1 0,0 0,1 1,1 0,0 -1,0 -1,0 0,0 0,0 0,0 0,0 1,0 1,0 0,1 0,1 0,1 0,1 -1,1 -1,2 0,0 0,0 0,0 0,1 0,1 -1,1 1,0 1,0 1,0 1,0 1,0 1,0 1,0 1,1 2,0 0,0 0,0 0,0 0,0 0,0 0,0 0,0 0,0 0,0 -1,0 -1,0 -1,0 0,0 0,0 0,0 0,0 0,0 0,-1 -1,1 -1,1 -1,1 0,0 0,0 0,-1 0,0 0,0 0,0 0,0 -1,0 -1,0 1,0 1,0 1,0 0,0 0,0 0,0 0,0 0,0 1,0 0,0 0,0 0,0 0,0 0,0 0,1 0,0 0,-1 0,-1 1,0 2,0 3,0 0,0 0,0 0,0 0,0 0,0 0,0 0,0 0,0 0,0 0,0 0,1 1,1 0,0 0,0 0,-1 0,1 0,0 1,1 -1,0 -1,0 -1,0 0,0 0,0 1,0 0,0 0,0 0,0 0,0 0,0 0,0 1,0 1,0 2,0 0,0 0,-1 0,-1 0,0 0,0 0,0 0,0 1,0 1,0 -1,0 -1,0 -1,0 0,1 0,1 0,1 0,0 0,0 0,0 0,0 0,0 -1,0 0,0 0,0 0,0 -1,0 -1,0 -1,0 0,0 0,0 0,0 0,0 -1,0 -1,1 1,0 1,0 1,0 0,-1 1,0 1,0 0,0 1,-1 1,0 0,0 1,0 1,0 0,0 0,0 0,0 0,0 0,0 0,0 0,0 -1,0 -1,0 1,0 1,0 1,1 0,-1 0,-1 0,-1 0,0 0,0 0,0 0,0 0,0 0,0 1,0 1,0 2,0 0,-1 0,-1 -1,-1 0,-1 0,-2 0,-2 0,0 0,0 0,0 0,0 0,0 0,0 0,0 -1,0 -1,0 0,0 1,0 1,0 0,0 0,0 0,-1 0,1 0,1 0,1 1,-1 0,-1 1,-1 0,0 0,-1 0,-1 0,0 0,0 1,-1 0,0 0,0 1,-1 0,0 0,0 0,0 0,-1 0,-1 0,-2 1,0 1,-1 1,-1 0,0 0,-1 -1,0 0,0 0,-1 -1,0 0,0 -1,-1 -1,0 -1,0 -1,-1 -1,0 0,0 -1,0 -1,0 0,0 -1,0 -1,0 -1,0 -1,0 -1,0 -1,0 -1,-1 -1,0 -1,0 -1,0 -1,0 -2,0 -3,-1 -4,0 -1,0 -1,-1 -2,-1 0,0 -1,0 -1,0 -1,0 -1,0 -1,0zm-10 6c0,0 0,0 1,0 0,0 0,0 -1,0zm1 0c0,0 0,0 0,0 0,0 0,0 0,0zm-3 0c0,0 1,0 1,0 0,0 -1,0 -1,0zm0 1c0,0 0,0 0,-1 0,1 0,1 0,1 0,0 0,-1 0,-1 -1,0 -1,1 0,1zm-1 -1c0,1 0,1 0,1 0,0 0,-1 0,-1zm2 1c0,0 0,0 0,0 0,0 0,0 0,0zm0 0c0,0 0,0 0,0zm-2 0c0,0 0,0 0,0 0,0 0,0 0,0zm0 2c0,0 0,-1 0,-1 0,0 0,0 0,-1 0,1 -1,1 0,2zm-1 0c0,0 0,0 0,0 0,0 0,0 0,0 0,0 0,0 0,-1 0,0 0,1 0,1zm-3 0c0,0 1,0 1,0 0,0 -1,0 -1,0zm3 0c0,0 0,0 1,0 0,0 0,0 -1,0zm19 1c0,0 0,0 1,0 -1,0 -1,0 -1,0zm1 0c0,0 0,0 0,0 0,-1 0,-1 0,0zm-19 0c0,0 0,0 0,0 0,0 0,0 0,0zm1 0c0,0 -1,0 -1,0 1,0 1,0 1,0zm17 0c0,0 0,0 0,0 0,0 0,0 0,0 0,0 0,0 0,0zm1 0c-1,0 -1,0 0,0 0,0 0,0 0,0zm0 0c0,0 0,0 0,0zm1 0c0,0 0,0 0,0 0,0 0,0 0,1 0,0 0,0 0,0 0,0 -1,0 -1,0 0,0 0,0 0,0 0,0 0,0 1,0 0,0 0,0 1,0 0,0 0,0 0,0 0,0 0,0 0,0 0,0 0,0 1,0 0,0 -1,0 -1,0 0,0 0,0 0,-1 0,0 -1,0 -1,0zm-6 1c-1,0 -1,0 -1,0 0,0 0,0 1,0 0,0 0,0 0,0 0,0 0,0 0,0 0,0 1,0 1,0 0,0 0,0 0,0 0,0 1,0 1,0 0,0 0,0 0,0 0,0 0,1 0,1 0,0 0,0 0,0 0,0 -1,0 -1,0 1,0 1,0 2,0 0,0 0,0 0,0 0,0 -1,0 -1,0 0,0 0,-1 0,-1 1,0 1,0 2,0 -1,0 -1,0 -2,0 0,0 0,0 0,0 0,0 -1,0 -1,0 -1,-1 -1,0 -1,0zm10 0c0,0 0,0 0,0 0,0 0,0 0,0zm1 0c1,0 2,0 2,0 0,0 0,0 -1,0 0,0 0,0 -1,0zm-3 0c0,0 0,0 0,0 0,0 1,0 1,0 0,0 0,0 0,0 0,0 1,0 1,0 0,0 0,0 0,0 0,0 0,0 0,0 0,0 0,0 0,1 0,-1 0,-1 0,-1 -1,0 -1,0 -2,0zm3 0c0,0 1,1 1,0 0,0 0,0 -1,0zm1 0c0,0 0,1 1,1 0,0 0,-1 0,-1 0,1 0,1 0,1 0,0 1,0 1,0 0,0 0,0 0,0 0,0 0,0 0,0 0,-1 0,-1 0,-1 -1,0 -1,0 -2,0zm0 0c0,1 0,1 0,1 0,-1 0,-1 0,-1zm-15 1c0,0 1,0 1,0 0,0 0,0 1,0 0,0 1,0 1,0 0,0 -1,0 -1,0 0,0 -1,-1 -2,0zm4 0c0,0 -1,0 -1,0 0,0 0,0 1,0 0,0 0,0 0,0 0,0 0,0 0,0 0,0 0,0 0,0 0,0 0,0 0,0 0,0 0,0 0,0zm-5 0c0,0 1,0 1,0 0,0 0,0 -1,0zm9 0c0,0 0,0 0,0 0,0 0,0 0,0 0,0 0,0 0,0zm1 0c0,0 0,0 1,0 0,0 0,0 -1,0zm-3 0c0,0 1,0 1,0 0,0 0,0 0,0 0,0 0,0 0,0 -1,0 -1,0 -1,0zm1 0c0,0 0,0 1,0 0,0 0,0 -1,0zm9 0c0,0 0,0 0,0 1,0 2,0 2,1 0,0 0,0 -1,0 0,0 0,0 0,0 -1,0 -1,0 -1,0 0,0 -1,0 -1,0 0,0 0,0 0,0 0,0 0,0 1,0 0,0 0,0 1,0 0,0 0,0 0,1 0,0 0,0 0,-1 0,1 0,1 0,1 1,0 1,0 1,0 0,0 0,-1 0,-1 0,0 0,0 0,0 0,0 0,0 0,0 0,0 0,0 1,0 -1,0 -1,0 -1,-1 -1,0 -1,0 -2,0zm-12 0c0,1 0,0 0,0zm4 0c0,0 0,0 0,0 1,0 0,0 0,0zm1 0c0,0 0,0 0,0 0,0 0,0 0,0zm6 0c0,0 0,0 1,0 0,0 -1,0 -1,0zm-16 1c0,0 0,0 0,0 -1,0 -1,0 -2,0 0,0 1,0 1,0 0,0 0,0 0,0 0,0 0,0 0,0 1,0 1,0 2,0 0,0 0,0 0,0 0,0 0,0 0,0 0,0 -1,0 -1,0zm17 0c-1,0 -1,0 -1,0 1,0 1,0 1,0 0,0 0,0 0,0zm2 0c1,0 1,0 1,0 0,1 1,0 1,1 0,-1 -1,-1 -1,-1 0,0 -1,0 -1,0zm-20 0c0,1 0,0 0,0zm0 0c0,1 1,0 0,0zm35 0c0,1 0,1 0,1 1,-1 0,-1 0,-1zm-13 1c0,0 1,0 1,0 0,0 -1,0 -1,0zm7 1c0,1 0,0 0,0z"/>
   <g>
    <path class="fil4" d="M92 21c0,0 0,0 0,0l0 0zm-3 16c0,1 0,1 0,0l0 0zm-53 3c0,0 0,0 0,0l0 0zm15 2c0,0 0,0 0,0l0 0zm-10 10c0,0 0,0 0,0l0 0zm18 4c0,0 0,0 0,0l0 0zm22 7c0,0 0,0 0,0l0 0zm10 16c0,0 0,0 0,0l0 0zm6 2c0,0 0,0 0,0l0 0zm0 0c0,0 0,0 0,0l0 0zm0 10c0,0 0,0 0,0l0 0zm3 1c0,0 0,0 0,0l0 0zm-11 3c0,0 0,0 0,0l0 0zm5 2c0,0 0,0 0,0l0 0zm-28 -84c1,0 2,0 2,0 1,0 1,0 2,0 0,0 1,0 2,0 1,0 1,0 2,0 0,0 1,0 2,0 0,0 0,1 0,1 0,0 0,0 0,0 0,0 0,-1 0,-1 1,0 1,1 2,1 1,0 2,0 3,0 1,0 1,0 2,1 0,0 1,0 2,0 0,0 1,0 1,1 0,0 1,0 1,0 1,0 1,1 2,1 0,0 1,1 1,1 0,0 0,0 1,0 0,0 0,0 0,0 0,1 0,1 0,1 1,1 1,1 1,1 0,1 0,1 1,1 0,1 0,1 0,1 0,1 0,1 0,2 0,0 0,0 0,0 1,0 0,1 0,2 0,0 0,1 0,1 0,1 0,1 0,2 -1,0 -1,0 -1,1 0,0 0,1 0,1 -1,1 -1,2 -1,3 -1,0 -1,0 -1,0 0,1 0,1 0,1 0,1 0,1 0,1 0,0 0,0 0,0 0,0 0,1 -1,1 1,0 0,1 0,1 1,0 0,1 0,1 0,0 0,1 0,1 0,1 0,1 0,1 0,0 0,0 0,0 0,1 0,1 0,1 0,1 0,1 0,1 0,1 0,1 0,1 -1,1 -1,2 -1,2 0,1 0,1 -1,1 0,1 0,1 0,1 0,0 -1,1 -1,1 0,0 -1,1 -1,2 -1,0 -1,0 -2,1 0,0 -1,1 -1,1 -1,0 -1,1 -1,2 -1,0 -1,0 -1,1 0,0 0,0 0,0 0,0 0,1 0,1 -1,1 -1,1 -1,2 0,0 1,0 1,0 0,0 0,0 0,0 1,1 2,1 3,1 0,0 0,0 1,0 0,1 0,1 1,1 1,1 2,1 3,2 1,1 1,1 2,1 1,1 1,2 2,3 1,0 1,1 2,1 0,1 0,1 0,1 0,1 1,1 1,1 0,0 0,0 0,0 0,1 0,1 1,2 0,0 0,1 1,1 0,0 0,1 0,1 0,0 0,1 0,1 0,0 0,1 1,1 0,1 0,1 0,1 0,1 1,1 1,1 1,0 1,1 1,1 0,1 1,1 1,1 0,1 0,1 -1,2 0,0 0,0 0,0 1,0 1,1 2,2 0,0 0,1 0,1 0,0 1,1 1,1 0,0 0,0 0,0 0,1 0,1 0,1 0,0 0,1 0,1 0,1 0,2 0,3 0,0 0,1 0,1 0,0 0,1 0,1 0,0 0,1 -1,1 0,1 -1,2 -2,3 0,0 -1,0 -1,0 -1,1 -2,1 -3,2 0,0 -1,0 -1,-1 0,1 0,1 0,1 0,0 0,-1 0,-1 0,0 0,0 0,-1 1,0 1,-1 1,-1 0,-1 1,-1 1,-1 0,-1 0,-2 0,-2 0,0 0,0 0,0 0,-1 0,-1 0,-2 0,0 0,1 0,1 0,1 0,1 -1,2 0,0 0,1 0,2 -1,0 -1,1 -1,2 0,0 -1,0 -1,1 0,0 -1,0 -2,0 0,0 0,0 0,-1 0,0 -1,0 -1,-1 0,0 0,0 0,-1 0,0 1,0 1,-1 0,0 0,0 0,-1 0,0 0,-1 1,-2 0,0 0,-1 0,-1 0,0 0,-1 0,-1 0,-1 0,-1 0,-2 0,0 -1,1 -1,1 0,0 0,0 0,0 0,1 0,2 0,2 0,0 0,0 0,0 0,0 0,0 0,0 0,1 0,1 0,1 -1,1 -1,2 -2,2 0,0 -1,1 -1,1 0,0 -1,-1 -1,0 0,0 -1,-1 -1,-1 0,-1 0,-2 0,-2 1,0 0,-1 1,-1 0,-1 0,-1 0,-2 0,0 1,0 1,0 0,-2 0,-3 1,-4 0,0 0,-1 0,-1 1,-1 1,-1 1,-1 0,0 1,-1 1,-1 -1,0 -1,0 -1,-1 -1,0 -1,-1 0,-1 0,0 0,-1 0,-1 0,0 0,0 0,-1 1,0 1,0 1,0 0,0 1,0 1,0 0,-1 0,-1 -1,-2 0,0 0,-1 0,-2 0,0 -1,0 -1,0 0,-1 0,-1 0,-1 0,-1 -1,-1 -1,-1 0,-1 -1,-1 -1,-2 -1,0 -1,-1 -1,-1 -2,-1 -3,-2 -4,-3 -1,0 -1,0 -2,0 0,0 0,0 0,0 0,0 0,0 0,0 0,1 0,1 0,1 0,1 0,2 0,2 0,1 0,1 0,2 0,0 0,1 0,1 0,2 0,3 0,4 0,0 0,1 -1,1 0,1 0,1 0,1 -1,1 -2,1 -2,1 0,0 0,0 0,0 0,0 0,0 0,0 -1,0 -1,0 -1,0 0,0 -1,1 -1,1 0,0 0,0 0,0 0,0 0,0 0,0 -6,1 -14,0 -19,-1 0,0 0,-1 0,-1 0,0 -1,0 -1,0 0,0 0,0 -1,-1 0,1 0,1 -1,0 0,0 -1,0 -1,-1 0,0 -1,-1 0,-1 0,0 0,0 0,0 0,-1 0,-1 0,-2 0,-1 0,-1 0,-2 0,-1 0,-1 0,-2 0,-1 0,-1 0,-1 0,-1 0,-1 0,-2 0,0 0,0 -1,0 0,0 -1,1 -2,1 0,0 -1,0 -2,0 0,-1 0,0 0,0 0,0 -1,-1 -1,-1 0,0 0,1 0,1 -1,0 -1,-1 -1,-1 -1,0 -1,0 -2,0 0,0 -1,0 -1,-1 -1,1 -1,0 -2,0 0,0 0,-1 -1,-1 0,0 -1,-1 -1,-1 0,0 0,0 0,0 -1,-1 -1,-1 -1,-2 -1,0 -1,0 -1,-1 0,0 0,0 -1,-1 0,0 0,0 0,-1 0,0 0,0 0,-1 -1,0 -1,0 -1,0 -1,0 -1,-1 -2,-1 0,0 0,-1 -1,-1 0,0 0,-1 0,-1 1,-1 1,-1 1,-1 0,0 1,0 1,0 -1,0 -1,0 -2,-1 0,0 -1,0 -1,0 0,0 -1,-1 -1,-1 -1,-1 -1,-1 -1,-2 -1,0 -1,0 -1,-1 0,0 0,0 0,0 0,-1 0,-2 -1,-2 0,-1 0,-1 0,-2 0,0 -1,-1 -1,-1 0,0 0,0 0,0 0,0 0,0 0,-1 -1,0 -1,-1 -1,-1 -1,-1 -1,-2 -1,-2 -1,-1 -1,-1 -1,-2 0,0 1,-1 1,-1 0,0 0,0 0,0 0,0 0,-1 1,-1 0,0 1,0 1,0 0,0 0,0 0,1 0,0 0,-1 0,-1 0,1 0,1 0,1 0,0 0,0 0,0 0,0 1,1 1,1 0,1 0,1 0,1 0,0 1,0 1,0 0,0 0,0 0,0 0,1 0,1 0,2 0,0 1,0 1,1 0,0 0,0 0,0 0,0 0,0 0,-1 0,0 0,-1 -1,-2 0,0 0,-1 0,-1 0,0 -1,-1 -1,-1 0,-1 0,-2 0,-2 0,0 0,0 0,-1 0,0 0,0 0,-1 0,0 0,0 1,-1 0,0 0,0 1,0 0,0 0,0 0,0 0,0 0,0 0,0 1,0 1,1 1,2 0,0 1,0 1,1 0,0 0,0 0,0 0,0 0,1 0,1 0,0 0,1 0,1 0,0 1,0 1,0 0,0 -1,0 -1,0 1,1 1,2 1,2 0,1 0,1 1,1 0,0 0,-1 -1,-1 0,-1 0,-2 0,-2 0,0 0,-1 0,-1 -1,-1 -1,-1 -1,-2 0,0 0,0 0,-1 0,0 0,0 0,-1 0,0 0,0 0,0 0,-1 0,-1 1,-2 0,0 1,0 2,1 0,0 1,1 1,1 0,1 0,1 0,1 0,0 0,1 0,1 0,0 0,1 1,1 -1,1 -1,1 -1,1 0,0 0,0 1,0 -1,1 -1,1 0,2 0,0 0,0 0,0 0,1 0,1 1,2 0,-1 0,-1 0,-1 0,-1 0,-2 0,-3 0,-1 -1,-1 0,-2 0,0 0,-1 0,-2 0,0 0,0 1,0 0,0 0,0 0,0 0,0 1,0 1,0 0,0 1,1 1,1 0,1 0,1 0,2 0,1 0,2 0,3 0,0 0,0 0,0 0,1 0,2 0,3 0,0 0,0 0,0 0,1 0,1 0,1 0,0 0,0 0,0 0,0 0,0 0,1 0,-1 0,-1 0,-1 1,-1 1,-2 2,-3 0,0 1,-1 1,-1 0,0 1,0 1,0 1,0 1,0 2,0 0,0 0,1 0,2 0,0 0,1 0,1 -1,1 -1,1 -1,1 0,1 -1,1 -1,1 0,1 0,1 0,1 0,0 -1,1 -1,1 0,1 0,1 0,2 0,0 0,0 0,0 0,1 0,1 0,1 0,1 0,1 -1,1 0,0 0,1 0,1 0,0 -1,0 -1,1 0,0 -1,0 -1,1 0,0 -1,0 -1,1 0,0 0,-1 1,-1 0,1 0,0 1,0 0,1 0,1 0,1 1,0 1,1 1,1 -1,1 -1,1 -1,1 0,0 0,1 -1,1 0,0 0,0 0,1 0,0 0,0 0,1 0,0 0,0 1,1 0,0 1,1 1,1 0,1 1,1 1,1 0,0 1,0 1,0 0,1 1,1 2,1 1,0 1,1 2,1 0,0 1,0 1,0 1,0 1,0 1,0 1,0 1,-1 2,0 0,-1 0,-1 0,-1 0,0 0,0 0,0 1,0 1,0 1,0 1,-1 2,0 2,-1 1,0 1,0 2,-1 0,0 0,-1 0,-2 0,0 0,0 0,-1 0,0 0,0 0,-1 0,0 -1,-1 -1,-1 0,-1 0,-2 0,-2 -1,-1 -1,-3 -2,-4 0,0 -1,-1 -1,-1 0,0 0,-1 -1,-1 0,0 0,-1 0,-1 0,0 0,-1 -1,-1 0,0 0,-1 -1,-2 1,0 0,-1 0,-1 0,0 0,-1 0,-1 0,-1 0,-2 0,-3 0,0 1,0 1,-1 0,0 0,-1 0,-1 0,0 0,0 0,0 0,0 1,0 1,-1 0,0 0,0 0,-1 0,0 0,0 0,0 0,0 0,0 0,0 0,-1 0,-2 1,-2 0,-1 -1,-2 0,-3 0,0 0,-1 -1,-1 1,-1 0,-1 0,-2 0,-1 0,-1 1,-1 -1,-1 -1,-1 -1,-1 0,0 1,-1 1,-2 0,-1 0,-2 0,-3 1,0 1,-1 1,-1 0,0 0,-1 1,-1 0,0 0,-1 1,-1 0,0 0,0 1,0 0,0 1,-1 1,-1 1,0 2,-1 2,-1 1,0 1,0 1,0 1,0 2,0 3,0 0,0 1,0 1,0zm-6 45c0,1 0,1 1,1l0 0 0 0c0,0 0,0 0,0 0,0 -1,1 -1,2 0,1 -2,1 -3,2 0,0 0,1 0,2 -1,0 0,1 0,1 -1,0 0,1 -1,2 0,0 0,1 0,2 0,0 1,1 0,2 0,0 0,1 0,2 0,2 2,1 2,2 1,0 2,1 3,1 1,0 3,0 4,0 0,1 1,1 1,1 0,0 2,-1 3,-1 0,1 4,0 5,1 0,0 2,-1 2,-1 1,0 2,0 3,0 1,-1 1,-2 1,-3 0,-1 0,-2 0,-3 0,-1 0,-2 0,-2 0,-1 0,-3 0,-4 0,0 0,-2 0,-2 0,-1 -3,-2 -3,-2 0,-1 -1,-1 -1,-1 1,0 1,-1 1,-1 0,-1 0,-1 0,-2 1,0 0,-1 1,-2 0,0 0,0 0,0 0,-1 1,-1 1,-2 0,0 1,-1 1,-1 1,-1 2,-2 2,-3 1,0 1,0 1,0 0,0 0,-1 1,-1 0,-1 1,-2 2,-3 0,-1 0,-1 0,-2 0,-1 1,-2 1,-3 0,0 0,-1 0,-1 0,-1 0,-2 0,-2 0,-1 0,-1 0,-1 1,-1 1,-2 1,-2 1,-1 0,-1 1,-2 0,0 0,-1 0,-2 0,0 1,0 1,-1 0,-1 0,-2 0,-3 0,0 1,-1 1,-1 0,-1 -1,-2 -1,-2 0,-1 0,-1 0,-2 -1,0 -1,0 -2,-1 -1,-1 -2,-1 -4,-2 0,0 -2,0 -2,-1 -1,0 -2,0 -2,0 -1,-1 -3,-1 -4,-1 0,0 -1,0 -1,0 0,0 -1,0 -1,0 0,0 -1,0 -1,0 -1,0 -2,0 -3,0 0,0 0,-1 -1,-1 0,0 0,1 -1,1 0,0 -1,0 -1,0 -1,0 -1,0 -2,0 0,0 0,0 0,0 -1,-1 -2,0 -2,0 -1,0 -1,0 -1,0 -1,0 -1,0 -2,0 -1,1 -1,1 -2,1 0,1 -1,1 -1,1 0,0 -1,1 -1,1 0,0 0,1 0,1 -1,0 0,1 0,1 0,1 -1,2 -1,2 0,1 0,1 1,1 -1,2 0,3 0,4 0,0 -1,0 -1,1 0,0 1,1 1,1 0,1 -1,1 -1,1 1,1 0,2 1,2 -1,1 -1,1 -1,1 0,1 0,1 0,1 -1,1 -1,2 -1,2 0,1 -1,2 -1,3 0,0 1,1 1,2 0,0 0,1 0,1 1,1 2,2 2,3 1,1 2,2 2,3 1,1 1,2 2,3 0,1 0,3 0,4 0,0 0,0 0,1l0 0c0,0 0,1 0,1zm15 -40c0,0 1,0 2,0 0,0 1,1 1,1 1,0 1,0 2,1 0,0 0,1 0,1 0,1 1,1 0,1 0,1 0,1 0,1 -1,0 -2,-1 -3,-1 -1,-1 -2,-1 -4,-1 0,0 0,0 0,0 0,-1 0,-2 1,-2 0,-1 1,-1 1,-1zm-14 11c1,-1 1,-1 2,-1 0,0 1,0 1,1 0,0 0,1 0,1 0,1 0,1 0,2 0,0 0,0 0,0 0,0 0,1 0,1 -1,1 -1,1 -2,1 0,0 0,0 0,0 0,0 0,0 0,1 -1,-1 -1,-2 -2,-2 0,0 1,0 1,0 -1,0 -1,-1 -1,-1 0,-1 0,-2 0,-2 1,-1 1,-1 1,-1zm12 0c1,0 1,-1 1,0 1,0 1,0 2,1 0,0 0,1 0,2 0,1 0,2 -1,2 0,0 0,0 0,0 0,1 0,1 -1,1 0,0 -1,0 -1,0 -1,-1 -1,-1 -1,-2 0,-1 0,-1 0,-2 0,0 0,0 0,0 0,-1 1,-2 1,-2zm1 11c1,0 1,0 2,0 1,0 1,0 2,1 1,0 1,1 1,1 0,1 0,1 1,2 0,0 -1,0 -1,0 0,0 0,-1 -1,-1 0,0 -1,1 -1,0 0,1 0,1 -1,1 0,0 0,0 0,1 0,0 -1,1 -1,1 0,1 -1,1 -1,1 0,0 0,1 0,1 -1,1 -1,2 -2,3 -1,0 -2,1 -3,1 0,0 -1,0 -2,0 -1,0 -1,0 -1,0 -1,0 -1,0 -2,-1 -1,0 -1,-1 -2,-2 0,-1 -1,-2 -1,-3 0,0 0,0 0,0 -1,-1 -2,-2 -3,-3 0,0 0,0 -1,0 0,0 0,0 0,0 0,0 -1,0 -1,0 0,-1 0,-1 0,-2 1,0 1,0 1,0 1,-1 2,0 2,-1 0,0 0,1 0,1 0,0 -1,0 -1,0 1,1 1,2 2,2 1,1 1,1 2,1 1,1 2,1 3,1 1,0 2,0 3,0 1,0 2,0 3,0 1,-1 2,-1 3,-2 1,0 1,0 1,-1 0,0 0,0 0,0 0,0 0,0 0,-1 0,0 -1,0 -1,0 0,-1 0,-1 0,-1zm-4 8c0,0 -1,0 -1,0 0,0 -1,0 -1,0 -1,0 -1,0 -2,0 -1,0 -1,1 -1,1 0,1 0,1 0,1 1,1 2,1 3,1 0,0 1,-1 1,-1 1,0 1,0 2,0 0,-1 0,-1 0,-2 0,0 0,0 -1,0zm4 -24c1,0 1,0 2,0 0,0 1,1 1,1 1,0 1,1 2,2 0,1 1,3 0,4 0,1 0,2 0,3 0,1 -1,2 -2,3 0,0 0,0 -1,1 -1,0 -2,0 -3,0 -1,0 -1,0 -1,0 -1,-1 -1,-1 -1,-1 0,0 -1,-1 -1,-1 0,-1 -1,-2 -1,-3 0,-1 0,-2 0,-2 0,-2 0,-3 1,-4 1,0 1,-1 1,-2 1,0 2,-1 3,-1zm-13 0c1,-1 1,-1 2,0 0,0 1,0 2,1 0,0 0,0 1,1 0,0 0,0 0,1 0,0 0,1 0,2 0,1 0,1 0,1 0,1 0,2 0,3 0,0 0,0 -1,1 0,0 0,0 0,1 0,0 0,0 0,0 0,1 1,1 1,1 0,0 0,0 0,1 -1,0 -1,0 -2,0 -1,0 -2,1 -2,1 -1,0 0,1 0,1 0,1 0,1 1,1 0,1 1,1 1,1 1,0 1,0 1,0 1,0 1,0 1,0 1,0 1,-1 1,-1 0,0 1,0 1,0 0,0 0,-1 0,-1 0,0 1,0 1,0 0,0 0,1 0,1 0,1 0,1 0,1 0,1 -1,1 -1,1 -1,0 -1,1 -2,1 0,0 -1,0 -2,0 -1,0 -1,0 -2,0 -1,-1 -1,-1 -2,-2 0,0 0,0 0,0 0,-1 -1,-1 -1,-1 0,-1 0,-2 0,-2 0,-1 0,-1 0,-1 0,-1 0,-1 -1,-1 0,0 -1,-1 -1,-1 0,-1 0,-1 0,-2 0,-1 0,-2 0,-3 0,-1 0,-1 0,-2 0,0 1,-1 1,-1 0,-1 1,-2 2,-3 0,0 0,0 0,0 1,0 1,0 1,0zm0 1c0,0 -1,1 -1,1 -1,0 -1,2 -2,2 0,1 0,1 0,1 0,0 0,0 0,0 0,1 0,1 0,2 0,0 0,0 0,1 0,0 0,0 0,0 0,0 0,0 0,0 0,0 0,0 0,1 0,0 0,0 0,0 0,0 0,1 0,1 0,0 0,0 0,0 1,0 1,0 1,0 0,1 0,1 0,1 1,0 1,1 2,1 0,0 1,-1 1,-1 0,0 1,0 1,0 0,-1 1,-1 1,-1 0,-1 0,-1 1,-2 0,0 0,-1 0,-1 0,-1 0,-2 0,-3 0,0 0,-1 -1,-1 0,0 0,-1 0,-1 0,0 -1,-1 -1,-1 -1,0 -1,0 -2,0zm4 11c0,1 0,1 0,0 0,0 0,0 0,0zm8 -10c0,0 0,1 -1,1 0,0 -1,1 -1,2 -1,0 0,0 0,1 0,0 -1,0 -1,1 0,0 0,0 0,0 0,0 0,0 0,0 0,1 0,2 1,3 0,0 0,1 0,1 0,0 0,0 0,1 1,0 1,0 1,0 1,0 1,1 2,1 0,0 1,0 1,-1 1,0 1,0 1,0 0,-1 1,-1 1,-1 0,-1 0,-2 1,-3 0,-1 0,-2 0,-2 0,-1 0,-1 0,-1 -1,-1 -1,-2 -1,-2 -1,-1 -1,-1 -2,-1 0,-1 0,0 -1,0 0,0 -1,0 -1,0zm-13 -7c0,-1 1,-1 1,-1 1,0 1,0 1,0 1,0 1,0 2,1 0,0 0,0 0,1 0,0 0,0 1,1 -1,0 -1,-1 -1,-1 -1,1 -2,1 -3,1 0,1 -1,1 -1,1 -1,0 -1,0 -2,0 0,0 0,-1 0,-1 0,-1 1,-1 1,-2 0,0 0,0 1,0zm13 -6c0,0 0,1 0,0 0,0 0,0 0,0zm3 1c-1,0 0,0 0,0zm3 0c0,0 0,0 0,0 0,0 0,0 0,0zm1 0c1,0 1,0 1,1 0,0 0,-1 0,-1 0,0 0,0 -1,0zm-5 1c0,1 1,1 1,0 0,0 0,0 -1,0zm-21 8c-1,0 0,0 0,0zm0 4c0,0 0,0 0,0 0,0 0,0 0,0zm-22 3c0,1 1,0 0,0zm4 10c-1,0 -1,0 -1,0 0,0 0,0 0,0 -1,1 -1,1 -1,1 -1,0 -1,0 -1,0 0,1 -1,1 -1,1 0,0 1,0 1,0 0,0 0,0 0,0 0,0 0,0 0,0 0,0 1,-1 1,-1 0,0 0,0 0,0 1,0 1,0 1,-1 0,0 0,0 0,1 1,-1 1,-1 1,-1 0,0 0,0 0,0zm-4 2c0,0 0,1 -1,1 1,0 1,0 1,-1zm7 1c0,0 0,0 0,0 0,0 0,0 0,0 0,1 -1,1 -1,1 0,0 0,0 0,0 0,0 0,1 0,1 0,0 0,-1 1,-1 0,0 0,0 0,0 0,0 0,0 0,-1 1,0 1,0 1,0 0,0 -1,0 -1,0zm-1 1c0,1 -1,2 -1,3 1,-1 1,-1 1,-1 0,-1 0,-1 0,-2 0,0 0,0 0,0zm-4 1c0,0 0,1 0,1 0,-1 0,-1 0,-1zm9 4c0,0 0,0 0,0 0,0 0,0 0,0zm0 12c0,1 0,0 0,0zm1 1c0,0 0,1 0,1 0,0 0,-1 0,-1zm42 3c0,1 0,1 0,0 0,0 0,0 0,0zm4 3c0,0 0,1 0,1 0,0 1,-1 0,-1zm2 4c0,0 1,0 0,0zm1 0c-1,0 0,0 0,0zm3 8c0,0 0,1 1,1 -1,0 -1,-1 -1,-1zm1 1c0,0 1,0 1,0 0,0 0,0 0,0 0,0 0,0 -1,0zm1 0c0,0 1,0 1,0 0,0 0,0 -1,0zm1 0c0,1 0,1 1,1 -1,0 -1,-1 -1,-1zm-6 3c0,0 1,0 0,0zm0 1c0,0 0,0 0,-1 0,1 0,1 0,1zm7 6c0,1 0,1 0,1 0,0 0,-1 0,-1zm0 2c0,1 -1,2 -1,3 1,0 1,-1 1,-1 0,0 0,-1 0,-1 0,0 0,0 0,-1 0,0 0,0 0,-1 0,1 0,1 0,1zm-4 3c0,0 0,0 0,0 0,0 0,0 0,0zm-1 0c0,0 0,0 0,0 0,0 0,0 0,0zm0 0c0,0 0,1 0,1 0,0 0,-1 0,-1z"/>
   </g>
   <g>
    <path class="fil4" d="M58 64c1,-1 1,-1 2,-1 0,0 0,0 0,0 1,1 1,1 1,2 0,1 0,1 0,2 0,0 0,0 0,1 0,0 0,0 0,0 0,0 -1,0 -1,0 0,0 1,0 1,0 0,0 0,0 0,0 0,0 -1,1 -1,1 0,0 0,0 0,1 -1,0 -1,0 -1,0 0,-1 -1,-1 -1,-2 0,0 0,0 0,0 0,0 0,-1 0,-1 0,-1 0,-1 0,-1 0,-1 0,-2 0,-2zm15 8c0,0 1,0 1,0 0,0 0,1 0,1 0,0 0,0 0,0 0,0 0,-1 0,-1 1,0 1,0 1,0 0,0 0,1 0,1 0,0 1,0 1,0 0,1 0,2 0,3 -1,0 -1,0 -1,0 0,0 0,-1 0,-1 0,-1 0,-1 0,-2 -1,0 -1,0 -1,1 0,0 0,0 0,1 0,0 0,1 -1,1 0,0 0,0 0,0 0,-1 0,-1 0,-2 0,0 0,-1 0,-2zm-2 0c0,0 0,0 1,0 0,1 0,1 0,1 0,0 0,0 0,-1 0,0 0,0 1,1 0,0 0,0 0,0 -1,0 -1,0 -1,1 0,0 0,0 0,0 0,1 0,1 0,2 -1,0 -1,0 -1,0 0,-1 0,-2 0,-3 0,0 0,-1 0,-1zm-3 1c0,0 1,-1 1,-1 0,0 0,0 0,0 0,0 0,0 0,0 1,0 1,0 1,0 0,0 0,0 0,1 0,0 0,1 0,1 1,0 0,1 0,1 0,0 0,1 0,1 0,0 -1,0 -1,0 0,0 0,0 0,0 0,0 0,0 0,0 -1,0 -1,0 -1,0 0,-1 0,-1 0,-1 0,0 0,0 0,0l0 0c0,0 0,0 0,-1 0,0 0,0 0,0 0,0 0,0 0,-1zm1 0c0,0 0,1 0,1 0,0 0,1 0,1 0,0 0,0 0,0 0,0 1,0 1,-1 0,0 0,0 -1,-1 0,0 0,0 0,0zm-6 -1c0,-1 0,-1 0,-1 1,1 1,1 1,2 0,0 0,1 0,1 0,0 -1,0 -1,0 0,0 0,0 -1,0 1,0 1,1 1,1 0,0 1,0 1,0 0,0 0,0 -1,1 0,0 -1,0 -1,-1 0,0 0,0 0,-1 0,0 0,-1 0,-1 0,-1 0,-1 1,-1zm0 1c0,0 0,0 0,0 0,1 0,0 0,0 0,0 0,0 0,0zm-2 -2c0,1 0,1 0,1 0,0 0,0 0,0 0,0 1,0 1,0 0,0 0,0 -1,1 0,0 0,0 0,0 -1,0 -1,0 -1,0 0,0 0,1 0,1 0,0 0,1 0,1 0,0 -1,1 -1,0 0,0 0,0 0,-1 0,0 0,-1 1,-1 0,0 -1,0 -1,0 0,-1 0,-1 1,-1 0,-1 0,0 0,0 1,0 1,0 1,-1zm0 1c0,0 0,0 0,0l0 0zm4 -2c0,0 0,0 1,0 0,0 0,1 0,1 0,0 0,1 0,1 0,0 0,0 0,0 0,0 0,0 0,0 0,0 1,0 1,0 0,1 0,1 0,1 0,1 1,1 0,1 0,1 0,1 0,1 -1,0 -1,1 -1,1 0,0 0,0 0,0 0,-1 -1,-1 -1,0 0,0 0,0 -1,0 0,-1 1,-2 1,-2 0,-1 0,-1 0,-2 0,0 0,-1 0,-1 0,0 0,0 0,-1zm0 2c0,1 1,0 0,0zm0 1c1,1 0,1 0,2 1,0 1,0 1,0 1,0 1,-2 0,-2 0,0 0,0 -1,0zm12 -7c0,0 1,0 1,0 0,0 0,0 0,0 0,0 1,0 1,0 0,1 0,2 0,3 0,0 0,1 -1,1 0,0 0,0 0,0 0,0 0,1 0,1 0,0 -1,0 -1,1 0,-1 0,-1 0,-1 0,-1 0,-2 0,-4 0,0 0,-1 0,-1zm2 1c0,0 0,0 0,0 0,0 0,0 0,0zm-1 0c0,1 0,1 0,2 0,0 0,0 0,0 0,0 0,-1 0,-1 0,0 0,-1 0,-1 0,0 0,0 0,0zm-4 -1c0,0 0,0 0,0 0,0 0,0 1,0 0,0 0,0 0,0 0,0 0,0 1,0 0,0 0,0 0,0 0,0 0,0 0,0 1,0 1,0 1,0 0,1 0,2 0,3 0,0 0,1 0,1 -1,0 -1,0 -1,0 0,0 0,0 0,0 0,0 0,0 0,0 0,-1 0,-2 0,-3 0,0 0,1 0,1 0,0 0,-1 0,-1 -1,0 0,1 0,1 0,0 -1,1 0,1 0,0 0,0 -1,0 0,1 0,1 0,1 0,0 0,0 0,0 0,0 0,0 0,0 0,-1 0,-2 0,-3 0,0 0,0 -1,1 1,0 0,1 0,1 0,0 0,0 0,1 0,0 0,0 0,0 0,0 0,0 0,0 0,0 0,-1 0,-1 0,-1 0,-2 0,-3zm0 2c0,1 0,1 0,0l0 0zm-1 -2c0,0 0,0 0,0 1,1 0,3 0,4 0,0 -1,0 -1,0 0,0 -1,0 -1,-1 0,0 1,-1 1,-1 0,0 0,0 1,-1 0,0 0,0 -1,0 0,0 0,0 0,0 0,0 0,-1 0,-1 0,0 0,0 1,0zm-1 3c0,0 0,0 0,0 0,0 0,0 0,0 0,0 0,0 0,0zm-5 -3c1,0 1,0 2,0 0,0 0,0 0,0 0,0 0,1 0,1 -1,0 -1,-1 -1,0 0,0 1,1 1,1 0,1 0,1 0,2 0,0 -1,0 -1,0 0,0 0,0 0,0 -1,0 -1,0 -1,0 0,0 0,-1 0,-1 0,0 0,0 0,0 0,0 0,0 1,0 0,0 0,0 0,0 0,0 0,-1 -1,-1 0,-1 0,-1 0,-2zm0 3c0,0 0,0 0,0zm3 -3c0,-1 0,-1 0,-1 0,0 0,0 0,0 0,0 1,0 1,0 0,0 0,0 0,1 0,0 0,0 0,0 0,0 0,0 0,0 0,0 0,1 0,1 0,0 0,0 -1,0 0,1 0,1 0,2 1,0 1,0 1,0 0,0 0,1 0,1 -1,0 -1,0 -1,0 -1,-1 0,-2 0,-3 -1,0 -1,0 -1,0 0,0 0,-1 0,-1 0,0 0,0 0,0 0,0 0,0 1,0zm1 0c0,0 0,0 0,0l0 0zm-6 -2c0,0 0,0 0,0 1,0 1,0 2,0 0,0 0,1 0,1 0,0 -1,0 -1,0 0,0 0,0 0,0 -1,1 0,1 0,1 0,0 0,0 0,1 0,-1 0,-1 0,-1 0,0 0,0 0,1 0,0 0,-1 1,-1 0,1 -1,1 -1,1 0,0 0,0 -1,0 0,1 0,1 0,2 1,0 1,0 2,0 0,0 0,0 -1,1 0,0 -1,0 -2,0 1,-2 1,-4 1,-6zm-4 -1c1,0 1,0 1,0 0,1 1,1 1,2 0,0 0,1 0,1 0,0 0,0 0,0 0,-1 0,-1 0,-2 0,0 0,0 0,-1 1,1 1,1 1,1 0,0 0,0 0,0 0,1 0,2 0,2 0,1 0,2 0,2 0,1 0,1 0,2 0,0 -1,0 -1,-1 0,0 0,0 0,0 0,-1 0,-1 0,-2 0,0 -1,0 -1,-1 0,1 0,2 0,3 0,1 0,0 -1,0 0,0 0,0 0,0 0,-2 0,-3 0,-5 0,0 0,0 0,-1zm1 0c0,0 0,0 0,0l0 0zm-3 0c0,0 0,0 0,0l0 0zm0 2c0,1 0,1 0,2 0,0 0,1 0,1 0,0 0,0 1,0 0,-1 0,-1 0,-2 0,-1 0,-1 0,-1 -1,0 -1,0 -1,0z"/>
   </g>
  </g>
 </g>
</svg>
